<svg width="352" height="294" viewBox="0 0 352 294" fill="none" xmlns="http://www.w3.org/2000/svg">
<path d="M28.4579 138.759C-12.4373 95.5039 74.4886 9.15581 133.751 0.946335C181.479 -5.65909 184.295 35.0999 208.023 54.024C242.618 81.5902 305.662 46.2922 326.196 82.8608C359.591 142.337 256.536 285.133 195.568 251.7C155.548 229.748 163.527 170.056 137.533 148.672C113.723 129.045 57.4121 169.371 28.4579 138.759Z" fill="#0891B2"/>
<path opacity="0.9" d="M28.4579 138.759C-12.4373 95.5039 74.4886 9.15581 133.751 0.946335C181.479 -5.65909 184.295 35.0999 208.023 54.024C242.618 81.5902 305.662 46.2922 326.196 82.8608C359.591 142.337 256.536 285.133 195.568 251.7C155.548 229.748 163.527 170.056 137.533 148.672C113.723 129.045 57.4121 169.371 28.4579 138.759Z" fill="white"/>
<path d="M176 293.964C272.649 293.964 350.998 289.397 350.998 283.763C350.998 278.129 272.649 273.562 176 273.562C79.3513 273.562 1.00195 278.129 1.00195 283.763C1.00195 289.397 79.3513 293.964 176 293.964Z" fill="#F5F5F5"/>
<path d="M122.911 17.8605H132.099L141.351 123.52H132.172C130.074 123.482 128.064 122.678 126.52 121.26C124.977 119.842 124.007 117.908 123.796 115.824L115.88 25.5563C115.772 24.5767 115.875 23.5853 116.181 22.6483C116.486 21.7113 116.989 20.8501 117.654 20.122C118.319 19.3939 119.132 18.8156 120.038 18.4257C120.945 18.0357 121.924 17.843 122.911 17.8605Z" fill="#0891B2"/>
<path d="M117.225 28.4582C117.205 28.2581 117.112 28.0723 116.964 27.9361C116.816 27.7999 116.623 27.7227 116.422 27.7192C116.328 27.7187 116.235 27.738 116.148 27.776C116.062 27.8139 115.985 27.8696 115.922 27.9393C115.859 28.0091 115.811 28.0914 115.782 28.1808C115.753 28.2702 115.744 28.3648 115.754 28.4582L116.377 35.5412C116.395 35.7397 116.486 35.9243 116.633 36.0593C116.78 36.1942 116.971 36.2697 117.171 36.2712C117.265 36.2743 117.359 36.2572 117.447 36.2208C117.534 36.1845 117.612 36.1299 117.676 36.0606C117.741 35.9914 117.789 35.9092 117.819 35.8196C117.848 35.7299 117.858 35.635 117.848 35.5412L117.225 28.4582Z" fill="#0891B2"/>
<path opacity="0.5" d="M117.225 28.4582C117.205 28.2581 117.112 28.0723 116.964 27.9361C116.816 27.7999 116.623 27.7227 116.422 27.7192C116.328 27.7187 116.235 27.738 116.148 27.776C116.062 27.8139 115.985 27.8696 115.922 27.9393C115.859 28.0091 115.811 28.0914 115.782 28.1808C115.753 28.2702 115.744 28.3648 115.754 28.4582L116.377 35.5412C116.395 35.7397 116.486 35.9243 116.633 36.0593C116.78 36.1942 116.971 36.2697 117.171 36.2712C117.265 36.2743 117.359 36.2572 117.447 36.2208C117.534 36.1845 117.612 36.1299 117.676 36.0606C117.741 35.9914 117.789 35.9092 117.819 35.8196C117.848 35.7299 117.858 35.635 117.848 35.5412L117.225 28.4582Z" fill="white"/>
<path d="M134.049 123.52H171.884C172.871 123.538 173.851 123.345 174.757 122.955C175.664 122.565 176.476 121.987 177.142 121.259C177.807 120.531 178.309 119.67 178.615 118.733C178.921 117.796 179.023 116.804 178.915 115.825L171 25.5565C170.788 23.4728 169.819 21.5389 168.275 20.1207C166.732 18.7025 164.721 17.8985 162.624 17.8606H124.798C123.81 17.8418 122.83 18.0335 121.923 18.4229C121.016 18.8124 120.202 19.3906 119.537 20.1191C118.871 20.8475 118.369 21.7093 118.064 22.647C117.759 23.5847 117.657 24.5766 117.767 25.5565L125.673 115.798C125.878 117.886 126.845 119.826 128.389 121.25C129.933 122.674 131.947 123.482 134.049 123.52Z" fill="#0891B2"/>
<path opacity="0.5" d="M134.049 123.52H171.884C172.871 123.538 173.851 123.345 174.757 122.955C175.664 122.565 176.476 121.987 177.142 121.259C177.807 120.531 178.309 119.67 178.615 118.733C178.921 117.796 179.023 116.804 178.915 115.825L171 25.5565C170.788 23.4728 169.819 21.5389 168.275 20.1207C166.732 18.7025 164.721 17.8985 162.624 17.8606H124.798C123.81 17.8418 122.83 18.0335 121.923 18.4229C121.016 18.8124 120.202 19.3906 119.537 20.1191C118.871 20.8475 118.369 21.7093 118.064 22.647C117.759 23.5847 117.657 24.5766 117.767 25.5565L125.673 115.798C125.878 117.886 126.845 119.826 128.389 121.25C129.933 122.674 131.947 123.482 134.049 123.52Z" fill="white"/>
<path d="M124.951 19.6268H134.78C135.101 19.633 135.41 19.7465 135.659 19.9491C135.908 20.1516 136.081 20.4316 136.152 20.7442L136.215 21.0506C136.389 21.8092 136.812 22.4879 137.417 22.9779C138.023 23.468 138.775 23.7413 139.555 23.754H148.923C149.661 23.771 150.375 23.4965 150.911 22.9902C151.447 22.4839 151.761 21.7868 151.784 21.0506V20.7442C151.788 20.5939 151.821 20.4457 151.882 20.3082C151.943 20.1707 152.03 20.0465 152.139 19.9428C152.248 19.839 152.376 19.7577 152.517 19.7034C152.657 19.6492 152.807 19.6232 152.958 19.6268H162.787C164.403 19.656 165.952 20.2756 167.141 21.3683C168.33 22.4609 169.077 23.9509 169.24 25.5563L177.146 115.797C177.23 116.552 177.151 117.316 176.916 118.038C176.681 118.76 176.294 119.424 175.781 119.985C175.269 120.546 174.643 120.991 173.944 121.292C173.246 121.592 172.491 121.741 171.731 121.727H133.896C132.28 121.698 130.731 121.078 129.541 119.985C128.352 118.893 127.605 117.403 127.442 115.797L119.527 25.5293C119.449 24.7762 119.532 24.0152 119.77 23.2965C120.008 22.5778 120.397 21.9177 120.909 21.3599C121.422 20.802 122.047 20.3591 122.744 20.0604C123.441 19.7616 124.193 19.6138 124.951 19.6268Z" fill="white"/>
<path d="M146.216 20.627C146.235 20.8294 146.329 21.0175 146.479 21.1555C146.629 21.2934 146.824 21.3715 147.028 21.3749C147.124 21.3768 147.219 21.3582 147.308 21.3203C147.396 21.2825 147.475 21.2264 147.54 21.1556C147.605 21.0849 147.654 21.0011 147.684 20.91C147.714 20.8188 147.724 20.7224 147.714 20.627C147.694 20.4245 147.6 20.2364 147.45 20.0985C147.301 19.9606 147.105 19.8825 146.901 19.879C146.805 19.8772 146.71 19.8958 146.622 19.9336C146.533 19.9714 146.454 20.0276 146.389 20.0983C146.324 20.1691 146.275 20.2528 146.245 20.344C146.215 20.4351 146.205 20.5316 146.216 20.627Z" fill="#263238"/>
<path d="M140.845 19.879H143.417C143.622 19.8822 143.819 19.96 143.97 20.0978C144.121 20.2356 144.217 20.4238 144.239 20.627C144.249 20.7224 144.239 20.8188 144.209 20.91C144.179 21.0011 144.13 21.0849 144.065 21.1556C144 21.2264 143.921 21.2825 143.833 21.3203C143.744 21.3582 143.649 21.3768 143.553 21.3749H140.98C140.776 21.3717 140.579 21.2939 140.428 21.1562C140.277 21.0184 140.181 20.8302 140.159 20.627C140.149 20.5316 140.159 20.4351 140.189 20.344C140.219 20.2528 140.268 20.1691 140.333 20.0983C140.398 20.0276 140.477 19.9714 140.565 19.9336C140.654 19.8958 140.749 19.8772 140.845 19.879Z" fill="#263238"/>
<path d="M174.457 85.4557H124.752L120.411 35.8384H170.106L174.457 85.4557Z" fill="#263238"/>
<path d="M130.737 29.945C130.799 30.4603 130.75 30.983 130.591 31.4774C130.433 31.9717 130.169 32.4261 129.819 32.8095C129.468 33.1928 129.039 33.496 128.56 33.6984C128.082 33.9008 127.565 33.9976 127.045 33.9822C125.946 33.9595 124.892 33.5368 124.083 32.7934C123.273 32.05 122.764 31.0371 122.65 29.945C122.587 29.4297 122.637 28.907 122.795 28.4126C122.953 27.9182 123.217 27.4639 123.567 27.0805C123.918 26.6972 124.347 26.394 124.826 26.1916C125.305 25.9892 125.821 25.8924 126.341 25.9078C127.441 25.9305 128.494 26.3532 129.303 27.0966C130.113 27.84 130.622 28.8529 130.737 29.945Z" fill="#263238"/>
<path d="M164.113 31.8013H156.351C155.845 31.7929 155.36 31.5991 154.987 31.257C154.614 30.9148 154.38 30.4479 154.33 29.945C154.304 29.7087 154.329 29.4696 154.403 29.2437C154.477 29.0178 154.598 28.8102 154.759 28.6346C154.919 28.4591 155.115 28.3196 155.334 28.2255C155.552 28.1313 155.788 28.0847 156.026 28.0886H163.788C164.295 28.0971 164.78 28.2908 165.153 28.633C165.526 28.9752 165.759 29.442 165.81 29.945C165.836 30.1813 165.811 30.4203 165.737 30.6462C165.663 30.8721 165.542 31.0798 165.381 31.2553C165.221 31.4309 165.025 31.5704 164.806 31.6645C164.588 31.7586 164.351 31.8053 164.113 31.8013Z" fill="#263238"/>
<path d="M147.118 92.3678H130.511C130.021 92.3607 129.552 92.1725 129.193 91.8395C128.835 91.5065 128.613 91.0525 128.57 90.5655C128.54 90.337 128.56 90.1048 128.629 89.8847C128.697 89.6646 128.812 89.462 128.967 89.2907C129.121 89.1194 129.311 88.9836 129.523 88.8925C129.735 88.8015 129.964 88.7573 130.195 88.7632H146.811C147.3 88.7723 147.768 88.9612 148.127 89.2938C148.485 89.6264 148.707 90.0792 148.752 90.5655C148.779 90.7942 148.756 91.026 148.686 91.2454C148.616 91.4648 148.5 91.6667 148.345 91.8374C148.19 92.0081 148.001 92.1438 147.789 92.2353C147.577 92.3268 147.349 92.372 147.118 92.3678Z" fill="#263238"/>
<path d="M168.78 99.3514H131.143C130.654 99.3404 130.187 99.1508 129.829 98.8186C129.472 98.4864 129.248 98.0347 129.202 97.5491C129.175 97.3205 129.197 97.0886 129.267 96.8692C129.338 96.6499 129.454 96.448 129.609 96.2773C129.763 96.1065 129.953 95.9708 130.165 95.8793C130.376 95.7879 130.605 95.7427 130.836 95.7468H168.473C168.963 95.7557 169.432 95.9443 169.792 96.2767C170.151 96.6092 170.376 97.0621 170.422 97.5491C170.449 97.7786 170.427 98.0112 170.356 98.2312C170.286 98.4513 170.168 98.6536 170.013 98.8245C169.857 98.9954 169.666 99.1309 169.454 99.2218C169.241 99.3127 169.011 99.3569 168.78 99.3514Z" fill="#263238"/>
<path d="M159.844 104.777H131.621C131.133 104.766 130.665 104.576 130.308 104.244C129.95 103.912 129.727 103.46 129.681 102.974C129.652 102.746 129.673 102.515 129.742 102.295C129.811 102.076 129.927 101.874 130.081 101.703C130.235 101.532 130.424 101.396 130.635 101.305C130.846 101.213 131.075 101.168 131.305 101.172H159.537C160.026 101.183 160.493 101.373 160.851 101.705C161.208 102.037 161.432 102.489 161.478 102.974C161.505 103.203 161.483 103.435 161.413 103.654C161.342 103.874 161.226 104.076 161.071 104.246C160.917 104.417 160.727 104.553 160.515 104.644C160.304 104.736 160.075 104.781 159.844 104.777Z" fill="#263238"/>
<path d="M165.314 110.202H132.099C131.61 110.194 131.14 110.006 130.782 109.673C130.423 109.34 130.201 108.886 130.159 108.399C130.13 108.171 130.151 107.939 130.22 107.72C130.289 107.501 130.405 107.299 130.559 107.128C130.713 106.957 130.902 106.821 131.113 106.729C131.325 106.638 131.553 106.593 131.783 106.597H165.007C165.495 106.608 165.963 106.798 166.32 107.13C166.678 107.462 166.901 107.914 166.947 108.399C166.974 108.628 166.952 108.86 166.882 109.079C166.812 109.299 166.696 109.5 166.541 109.671C166.386 109.842 166.196 109.978 165.985 110.069C165.773 110.161 165.544 110.206 165.314 110.202Z" fill="#263238"/>
<path d="M142.741 115.626H132.569C132.08 115.615 131.613 115.426 131.255 115.094C130.898 114.761 130.674 114.31 130.628 113.824C130.601 113.595 130.623 113.364 130.693 113.144C130.764 112.925 130.88 112.723 131.035 112.552C131.189 112.381 131.379 112.246 131.591 112.154C131.802 112.063 132.031 112.018 132.262 112.022H142.425C142.914 112.029 143.384 112.217 143.742 112.55C144.101 112.883 144.323 113.337 144.365 113.824C144.394 114.052 144.373 114.284 144.304 114.503C144.235 114.723 144.119 114.925 143.965 115.096C143.811 115.267 143.622 115.402 143.411 115.494C143.199 115.586 142.971 115.631 142.741 115.626Z" fill="#263238"/>
<path opacity="0.9" d="M174.457 85.4557H124.752L120.411 35.8384H170.106L174.457 85.4557Z" fill="white"/>
<path opacity="0.9" d="M130.737 29.945C130.799 30.4603 130.75 30.983 130.591 31.4774C130.433 31.9717 130.169 32.4261 129.819 32.8095C129.468 33.1928 129.039 33.496 128.56 33.6984C128.082 33.9008 127.565 33.9976 127.045 33.9822C125.946 33.9595 124.892 33.5368 124.083 32.7934C123.273 32.05 122.764 31.0371 122.65 29.945C122.587 29.4297 122.637 28.907 122.795 28.4126C122.953 27.9182 123.217 27.4639 123.567 27.0805C123.918 26.6972 124.347 26.394 124.826 26.1916C125.305 25.9892 125.821 25.8924 126.341 25.9078C127.441 25.9305 128.494 26.3532 129.303 27.0966C130.113 27.84 130.622 28.8529 130.737 29.945Z" fill="white"/>
<path opacity="0.9" d="M164.113 31.8013H156.351C155.845 31.7929 155.36 31.5991 154.987 31.257C154.614 30.9148 154.38 30.4479 154.33 29.945C154.304 29.7087 154.329 29.4696 154.403 29.2437C154.477 29.0178 154.598 28.8102 154.759 28.6346C154.919 28.4591 155.115 28.3196 155.334 28.2255C155.552 28.1313 155.788 28.0847 156.026 28.0886H163.788C164.295 28.0971 164.78 28.2908 165.153 28.633C165.526 28.9752 165.759 29.442 165.81 29.945C165.836 30.1813 165.811 30.4203 165.737 30.6462C165.663 30.8721 165.542 31.0798 165.381 31.2553C165.221 31.4309 165.025 31.5704 164.806 31.6645C164.588 31.7586 164.351 31.8053 164.113 31.8013Z" fill="white"/>
<path opacity="0.9" d="M147.118 92.3678H130.511C130.021 92.3607 129.552 92.1725 129.193 91.8395C128.835 91.5065 128.613 91.0525 128.57 90.5655C128.54 90.337 128.56 90.1048 128.629 89.8847C128.697 89.6646 128.812 89.462 128.967 89.2907C129.121 89.1194 129.311 88.9836 129.523 88.8925C129.735 88.8015 129.964 88.7573 130.195 88.7632H146.811C147.3 88.7723 147.768 88.9612 148.127 89.2938C148.485 89.6264 148.707 90.0792 148.752 90.5655C148.779 90.7942 148.756 91.026 148.686 91.2454C148.616 91.4648 148.5 91.6667 148.345 91.8374C148.19 92.0081 148.001 92.1438 147.789 92.2353C147.577 92.3268 147.349 92.372 147.118 92.3678Z" fill="white"/>
<path opacity="0.9" d="M168.78 99.3514H131.143C130.654 99.3404 130.187 99.1508 129.829 98.8186C129.472 98.4864 129.248 98.0347 129.202 97.5491C129.175 97.3205 129.197 97.0886 129.267 96.8692C129.338 96.6499 129.454 96.448 129.609 96.2773C129.763 96.1065 129.953 95.9708 130.165 95.8793C130.376 95.7879 130.605 95.7427 130.836 95.7468H168.473C168.963 95.7557 169.432 95.9443 169.792 96.2767C170.151 96.6092 170.376 97.0621 170.422 97.5491C170.449 97.7786 170.427 98.0112 170.356 98.2312C170.286 98.4513 170.168 98.6536 170.013 98.8245C169.857 98.9954 169.666 99.1309 169.454 99.2218C169.241 99.3127 169.011 99.3569 168.78 99.3514Z" fill="white"/>
<path opacity="0.9" d="M159.844 104.777H131.621C131.133 104.766 130.665 104.576 130.308 104.244C129.95 103.912 129.727 103.46 129.681 102.974C129.652 102.746 129.673 102.515 129.742 102.295C129.811 102.076 129.927 101.874 130.081 101.703C130.235 101.532 130.424 101.396 130.635 101.305C130.846 101.213 131.075 101.168 131.305 101.172H159.537C160.026 101.183 160.493 101.373 160.851 101.705C161.208 102.037 161.432 102.489 161.478 102.974C161.505 103.203 161.483 103.435 161.413 103.654C161.342 103.874 161.226 104.076 161.071 104.246C160.917 104.417 160.727 104.553 160.515 104.644C160.304 104.736 160.075 104.781 159.844 104.777Z" fill="white"/>
<path opacity="0.9" d="M165.314 110.202H132.099C131.61 110.194 131.14 110.006 130.782 109.673C130.423 109.34 130.201 108.886 130.159 108.399C130.13 108.171 130.151 107.939 130.22 107.72C130.289 107.501 130.405 107.299 130.559 107.128C130.713 106.957 130.902 106.821 131.113 106.729C131.325 106.638 131.553 106.593 131.783 106.597H165.007C165.495 106.608 165.963 106.798 166.32 107.13C166.678 107.462 166.901 107.914 166.947 108.399C166.974 108.628 166.952 108.86 166.882 109.079C166.812 109.299 166.696 109.5 166.541 109.671C166.386 109.842 166.196 109.978 165.985 110.069C165.773 110.161 165.544 110.206 165.314 110.202Z" fill="white"/>
<path opacity="0.9" d="M142.741 115.626H132.569C132.08 115.615 131.613 115.426 131.255 115.094C130.898 114.761 130.674 114.31 130.628 113.824C130.601 113.595 130.623 113.364 130.693 113.144C130.764 112.925 130.88 112.723 131.035 112.552C131.189 112.381 131.379 112.246 131.591 112.154C131.802 112.063 132.031 112.018 132.262 112.022H142.425C142.914 112.029 143.384 112.217 143.742 112.55C144.101 112.883 144.323 113.337 144.365 113.824C144.394 114.052 144.373 114.284 144.304 114.503C144.235 114.723 144.119 114.925 143.965 115.096C143.811 115.267 143.622 115.402 143.411 115.494C143.199 115.586 142.971 115.631 142.741 115.626Z" fill="white"/>
<path d="M157.66 76.0567H142.389C141.325 76.0379 140.304 75.6305 139.521 74.9114C138.738 74.1924 138.245 73.2116 138.137 72.1547L136.802 56.9072C136.751 56.3887 136.81 55.8653 136.973 55.3705C137.136 54.8756 137.4 54.42 137.749 54.0326C138.102 53.6516 138.531 53.3489 139.008 53.144C139.486 52.939 140.001 52.8365 140.52 52.8431H155.792C156.856 52.8618 157.876 53.2693 158.659 53.9883C159.442 54.7073 159.935 55.6881 160.043 56.745L161.378 71.9925C161.429 72.5111 161.37 73.0344 161.207 73.5293C161.044 74.0242 160.78 74.4798 160.431 74.8672C160.078 75.2481 159.649 75.5509 159.172 75.7558C158.695 75.9607 158.179 76.0632 157.66 76.0567ZM140.511 54.6724C140.244 54.6639 139.979 54.7132 139.733 54.8169C139.487 54.9206 139.266 55.0763 139.086 55.2732C138.906 55.4701 138.77 55.7037 138.689 55.9577C138.608 56.2118 138.583 56.4804 138.616 56.745L139.952 71.9925C140.013 72.5967 140.294 73.1576 140.741 73.5693C141.189 73.981 141.771 74.2151 142.38 74.2273H157.651C157.918 74.2359 158.183 74.1866 158.43 74.0828C158.676 73.9791 158.896 73.8235 159.076 73.6265C159.256 73.4296 159.392 73.1961 159.473 72.942C159.554 72.6879 159.579 72.4194 159.546 72.1547L158.21 56.9072C158.149 56.303 157.868 55.7421 157.421 55.3304C156.973 54.9187 156.391 54.6847 155.783 54.6724H140.511Z" fill="#263238"/>
<g opacity="0.5">
<path d="M157.66 76.0567H142.389C141.325 76.0379 140.304 75.6305 139.521 74.9114C138.738 74.1924 138.245 73.2116 138.137 72.1547L136.802 56.9072C136.751 56.3887 136.81 55.8653 136.973 55.3705C137.136 54.8756 137.4 54.42 137.749 54.0326C138.102 53.6516 138.531 53.3489 139.008 53.144C139.486 52.939 140.001 52.8365 140.52 52.8431H155.792C156.856 52.8618 157.876 53.2693 158.659 53.9883C159.442 54.7073 159.935 55.6881 160.043 56.745L161.378 71.9925C161.429 72.5111 161.37 73.0344 161.207 73.5293C161.044 74.0242 160.78 74.4798 160.431 74.8672C160.078 75.2481 159.649 75.5509 159.172 75.7558C158.695 75.9607 158.179 76.0632 157.66 76.0567ZM140.511 54.6724C140.244 54.6639 139.979 54.7132 139.733 54.8169C139.487 54.9206 139.266 55.0763 139.086 55.2732C138.906 55.4701 138.77 55.7037 138.689 55.9577C138.608 56.2118 138.583 56.4804 138.616 56.745L139.952 71.9925C140.013 72.5967 140.294 73.1576 140.741 73.5693C141.189 73.981 141.771 74.2151 142.38 74.2273H157.651C157.918 74.2359 158.183 74.1866 158.43 74.0828C158.676 73.9791 158.896 73.8235 159.076 73.6265C159.256 73.4296 159.392 73.1961 159.473 72.942C159.554 72.6879 159.579 72.4194 159.546 72.1547L158.21 56.9072C158.149 56.303 157.868 55.7421 157.421 55.3304C156.973 54.9187 156.391 54.6847 155.783 54.6724H140.511Z" fill="white"/>
</g>
<path d="M145.927 70.8032L134.266 60.0976C133.875 59.7354 133.644 59.2339 133.622 58.7024C133.6 58.1708 133.789 57.6521 134.148 57.259C134.511 56.8693 135.013 56.6384 135.546 56.6164C136.078 56.5945 136.598 56.7833 136.991 57.1418L145.674 65.117L162.516 46.6975C162.693 46.5025 162.907 46.3443 163.145 46.232C163.383 46.1197 163.642 46.0554 163.905 46.0428C164.168 46.0302 164.431 46.0697 164.679 46.1588C164.927 46.248 165.155 46.3851 165.35 46.5623C165.743 46.9221 165.977 47.4222 166.003 47.9538C166.028 48.4854 165.842 49.0055 165.485 49.4009L145.927 70.8032Z" fill="#0891B2"/>
<g opacity="0.2">
<path d="M145.927 70.8032L134.266 60.0976C133.875 59.7354 133.644 59.2339 133.622 58.7024C133.6 58.1708 133.789 57.6521 134.148 57.259C134.511 56.8693 135.013 56.6384 135.546 56.6164C136.078 56.5945 136.598 56.7833 136.991 57.1418L145.674 65.117L162.516 46.6975C162.693 46.5025 162.907 46.3443 163.145 46.232C163.383 46.1197 163.642 46.0554 163.905 46.0428C164.168 46.0302 164.431 46.0697 164.679 46.1588C164.927 46.248 165.155 46.3851 165.35 46.5623C165.743 46.9221 165.977 47.4222 166.003 47.9538C166.028 48.4854 165.842 49.0055 165.485 49.4009L145.927 70.8032Z" fill="black"/>
</g>
<path d="M175.242 245.563C174.841 245.41 174.397 245.41 173.996 245.563H143.038L130.032 283.646H162.687L163.364 281.609H165.332L176.262 247.753C176.407 247.327 176.381 246.862 176.191 246.454C176.001 246.046 175.661 245.727 175.242 245.563ZM161.045 263.514L159.925 266.993C159.579 268.043 158.909 268.957 158.011 269.605C157.113 270.252 156.033 270.599 154.925 270.597H153.364C152.729 270.598 152.103 270.449 151.536 270.162C150.97 269.875 150.48 269.458 150.106 268.946C149.732 268.433 149.484 267.84 149.384 267.214C149.283 266.588 149.333 265.947 149.528 265.343L150.656 261.865C151.001 260.815 151.669 259.901 152.566 259.254C153.462 258.606 154.541 258.259 155.647 258.26H157.218C157.854 258.26 158.481 258.41 159.048 258.699C159.615 258.988 160.106 259.406 160.479 259.921C160.852 260.435 161.098 261.031 161.197 261.659C161.295 262.286 161.243 262.928 161.045 263.532V263.514Z" fill="#263238"/>
<path opacity="0.3" d="M175.242 245.563C174.841 245.41 174.397 245.41 173.996 245.563H143.038L130.032 283.646H162.687L163.364 281.609H165.332L176.262 247.753C176.407 247.327 176.381 246.862 176.191 246.454C176.001 246.046 175.661 245.727 175.242 245.563ZM161.045 263.514L159.925 266.993C159.579 268.043 158.909 268.957 158.011 269.605C157.113 270.252 156.033 270.599 154.925 270.597H153.364C152.729 270.598 152.103 270.449 151.536 270.162C150.97 269.875 150.48 269.458 150.106 268.946C149.732 268.433 149.484 267.84 149.384 267.214C149.283 266.588 149.333 265.947 149.528 265.343L150.656 261.865C151.001 260.815 151.669 259.901 152.566 259.254C153.462 258.606 154.541 258.259 155.647 258.26H157.218C157.854 258.26 158.481 258.41 159.048 258.699C159.615 258.988 160.106 259.406 160.479 259.921C160.852 260.435 161.098 261.031 161.197 261.659C161.295 262.286 161.243 262.928 161.045 263.532V263.514Z" fill="white"/>
<path d="M200.812 281.609H168.608C169.07 281.609 169.513 281.792 169.84 282.118C170.167 282.444 170.35 282.887 170.35 283.348V284.006C170.351 284.235 170.307 284.461 170.22 284.673C170.133 284.884 170.005 285.077 169.843 285.238C169.681 285.4 169.488 285.528 169.276 285.615C169.064 285.702 168.837 285.746 168.608 285.745H200.812C201.04 285.745 201.266 285.7 201.477 285.613C201.688 285.525 201.879 285.397 202.04 285.235C202.201 285.074 202.329 284.882 202.415 284.671C202.502 284.46 202.546 284.234 202.545 284.006V283.348C202.545 282.888 202.362 282.447 202.038 282.121C201.713 281.796 201.272 281.611 200.812 281.609Z" fill="#263238"/>
<path opacity="0.3" d="M200.812 281.609H168.608C169.07 281.609 169.513 281.792 169.84 282.118C170.167 282.444 170.35 282.887 170.35 283.348V284.006C170.351 284.235 170.307 284.461 170.22 284.673C170.133 284.884 170.005 285.077 169.843 285.238C169.681 285.4 169.488 285.528 169.276 285.615C169.064 285.702 168.837 285.746 168.608 285.745H200.812C201.04 285.745 201.266 285.7 201.477 285.613C201.688 285.525 201.879 285.397 202.04 285.235C202.201 285.074 202.329 284.882 202.415 284.671C202.502 284.46 202.546 284.234 202.545 284.006V283.348C202.545 282.888 202.362 282.447 202.038 282.121C201.713 281.796 201.272 281.611 200.812 281.609Z" fill="white"/>
<path d="M168.608 285.727H128.164L140.8 246.672C140.873 246.446 140.991 246.238 141.147 246.06C141.302 245.882 141.493 245.738 141.707 245.636C141.921 245.533 142.153 245.476 142.39 245.467C142.626 245.457 142.863 245.496 143.084 245.581C143.498 245.742 143.835 246.054 144.026 246.454C144.218 246.855 144.249 247.313 144.113 247.735L133.128 281.609H168.608C169.07 281.609 169.513 281.792 169.84 282.119C170.167 282.445 170.35 282.887 170.35 283.348V284.006C170.349 284.233 170.303 284.458 170.215 284.668C170.127 284.877 169.998 285.067 169.836 285.227C169.674 285.387 169.483 285.513 169.272 285.599C169.061 285.685 168.836 285.729 168.608 285.727Z" fill="#263238"/>
<g opacity="0.6">
<path d="M168.608 285.727H128.164L140.8 246.672C140.873 246.446 140.991 246.238 141.147 246.06C141.302 245.882 141.493 245.738 141.707 245.636C141.921 245.533 142.153 245.476 142.39 245.467C142.626 245.457 142.863 245.496 143.084 245.581C143.498 245.742 143.835 246.054 144.026 246.454C144.218 246.855 144.249 247.313 144.113 247.735L133.128 281.609H168.608C169.07 281.609 169.513 281.792 169.84 282.119C170.167 282.445 170.35 282.887 170.35 283.348V284.006C170.349 284.233 170.303 284.458 170.215 284.668C170.127 284.877 169.998 285.067 169.836 285.227C169.674 285.387 169.483 285.513 169.272 285.599C169.061 285.685 168.836 285.729 168.608 285.727Z" fill="white"/>
</g>
<path d="M157.218 258.278H155.647C155.53 258.278 155.422 258.278 155.304 258.278C155.897 258.344 156.468 258.541 156.975 258.855C157.483 259.168 157.914 259.59 158.238 260.09C158.562 260.591 158.77 261.156 158.848 261.747C158.926 262.338 158.872 262.938 158.689 263.505L157.57 266.983C157.246 267.982 156.628 268.859 155.797 269.502C154.967 270.145 153.962 270.523 152.913 270.588C153.063 270.597 153.214 270.597 153.364 270.588H154.925C156.033 270.59 157.113 270.243 158.011 269.596C158.909 268.948 159.579 268.034 159.926 266.983L161.045 263.505C161.234 262.904 161.28 262.267 161.177 261.645C161.075 261.023 160.827 260.434 160.455 259.926C160.082 259.417 159.595 259.003 159.033 258.717C158.471 258.43 157.849 258.28 157.218 258.278Z" fill="#263238"/>
<path d="M87.0163 134.649H71.0139C70.2357 134.634 69.4633 134.785 68.7483 135.092C68.0332 135.399 67.392 135.855 66.8674 136.429C66.3429 137.003 65.947 137.682 65.7064 138.421C65.4658 139.16 65.3859 139.942 65.4721 140.714L74.4978 244.346C74.6674 245.99 75.4342 247.515 76.6532 248.632C77.8722 249.749 79.4589 250.382 81.1136 250.411H97.107L87.0163 134.649Z" fill="#0891B2"/>
<path opacity="0.2" d="M87.0163 134.649H71.0139C70.2357 134.634 69.4633 134.785 68.7483 135.092C68.0332 135.399 67.392 135.855 66.8674 136.429C66.3429 137.003 65.947 137.682 65.7064 138.421C65.4658 139.16 65.3859 139.942 65.4721 140.714L74.4978 244.346C74.6674 245.99 75.4342 247.515 76.6532 248.632C77.8722 249.749 79.4589 250.382 81.1136 250.411H97.107L87.0163 134.649Z" fill="white"/>
<path d="M228.592 250.366H85.2924C83.6382 250.339 82.0515 249.707 80.8336 248.589C79.6156 247.471 78.8513 245.945 78.6856 244.301L69.6058 140.669C69.521 139.896 69.6022 139.115 69.8439 138.376C70.0856 137.637 70.4823 136.957 71.0075 136.384C71.5328 135.81 72.1745 135.354 72.89 135.047C73.6054 134.741 74.3781 134.59 75.1566 134.605H218.421C220.075 134.632 221.662 135.264 222.879 136.382C224.097 137.5 224.862 139.026 225.027 140.669L234.107 244.301C234.192 245.071 234.111 245.85 233.872 246.586C233.632 247.323 233.239 248 232.717 248.573C232.196 249.147 231.559 249.603 230.848 249.912C230.137 250.221 229.368 250.376 228.592 250.366Z" fill="#0891B2"/>
<path opacity="0.5" d="M228.592 250.366H85.2924C83.6382 250.339 82.0515 249.707 80.8336 248.589C79.6156 247.471 78.8513 245.945 78.6856 244.301L69.6058 140.669C69.521 139.896 69.6022 139.115 69.8439 138.376C70.0856 137.637 70.4823 136.957 71.0075 136.384C71.5328 135.81 72.1745 135.354 72.89 135.047C73.6054 134.741 74.3781 134.59 75.1566 134.605H218.421C220.075 134.632 221.662 135.264 222.879 136.382C224.097 137.5 224.862 139.026 225.027 140.669L234.107 244.301C234.192 245.071 234.111 245.85 233.872 246.586C233.632 247.323 233.239 248 232.717 248.573C232.196 249.147 231.559 249.603 230.848 249.912C230.137 250.221 229.368 250.376 228.592 250.366Z" fill="white"/>
<path d="M77.7651 233.848L78.6677 244.31C78.8334 245.954 79.5977 247.48 80.8156 248.598C82.0335 249.716 83.6202 250.348 85.2745 250.375H228.593C229.371 250.39 230.144 250.239 230.859 249.932C231.575 249.626 232.216 249.17 232.742 248.596C233.267 248.022 233.664 247.343 233.905 246.604C234.147 245.865 234.228 245.083 234.143 244.31L233.241 233.848H77.7651Z" fill="#0891B2"/>
<path opacity="0.2" d="M77.7651 233.848L78.6677 244.31C78.8334 245.954 79.5977 247.48 80.8156 248.598C82.0335 249.716 83.6202 250.348 85.2745 250.375H228.593C229.371 250.39 230.144 250.239 230.859 249.932C231.575 249.626 232.216 249.17 232.742 248.596C233.267 248.022 233.664 247.343 233.905 246.604C234.147 245.865 234.228 245.083 234.143 244.31L233.241 233.848H77.7651Z" fill="white"/>
<path d="M74.7053 139.813L82.4944 228.666H227.6L219.811 139.813H74.7053Z" fill="white"/>
<path d="M108.885 153.7H81.7454L80.897 143.949H108.028L108.885 153.7Z" fill="#263238"/>
<path d="M154.492 148.824H138.002L137.578 143.949H154.068L154.492 148.824Z" fill="#263238"/>
<path d="M123.2 224.656H96.1773L95.031 211.599H122.054L123.2 224.656Z" fill="#263238"/>
<path d="M155.855 224.656H128.832L127.686 211.599H154.709L155.855 224.656Z" fill="#263238"/>
<path d="M188.51 224.656H161.487L160.341 211.599H187.363L188.51 224.656Z" fill="#263238"/>
<path d="M221.164 224.656H194.142L192.995 211.599H220.018L221.164 224.656Z" fill="#263238"/>
<path d="M174.502 148.824H158.012L157.588 143.949H174.078L174.502 148.824Z" fill="#263238"/>
<path d="M194.512 148.824H178.022L177.589 143.949H194.088L194.512 148.824Z" fill="#263238"/>
<path d="M214.521 148.824H198.032L197.598 143.949H214.088L214.521 148.824Z" fill="#263238"/>
<path d="M225.677 207.201H80.572L76.4744 160.503H221.589L225.677 207.201Z" fill="#263238"/>
<g opacity="0.9">
<path d="M108.885 153.7H81.7454L80.897 143.949H108.028L108.885 153.7Z" fill="white"/>
<path d="M154.492 148.824H138.002L137.578 143.949H154.068L154.492 148.824Z" fill="white"/>
<path d="M123.2 224.656H96.1773L95.031 211.599H122.054L123.2 224.656Z" fill="white"/>
<path d="M155.855 224.656H128.832L127.686 211.599H154.709L155.855 224.656Z" fill="white"/>
<path d="M188.51 224.656H161.487L160.341 211.599H187.363L188.51 224.656Z" fill="white"/>
<path d="M221.164 224.656H194.142L192.995 211.599H220.018L221.164 224.656Z" fill="white"/>
<path d="M174.502 148.824H158.012L157.588 143.949H174.078L174.502 148.824Z" fill="white"/>
<path d="M194.512 148.824H178.022L177.589 143.949H194.088L194.512 148.824Z" fill="white"/>
<path d="M214.521 148.824H198.032L197.598 143.949H214.088L214.521 148.824Z" fill="white"/>
<path d="M225.677 207.201H80.572L76.4744 160.503H221.589L225.677 207.201Z" fill="white"/>
</g>
<path d="M168.012 195.252H151.044C149.863 195.229 148.731 194.776 147.861 193.978C146.992 193.179 146.445 192.09 146.324 190.917L144.835 173.976C144.778 173.4 144.843 172.818 145.025 172.269C145.207 171.72 145.502 171.214 145.891 170.785C146.282 170.361 146.758 170.024 147.288 169.796C147.818 169.568 148.391 169.454 148.968 169.461H165.936C167.118 169.483 168.25 169.936 169.119 170.735C169.989 171.533 170.536 172.622 170.657 173.795L172.146 190.737C172.202 191.313 172.137 191.894 171.956 192.443C171.774 192.993 171.479 193.498 171.09 193.927C170.699 194.351 170.223 194.688 169.692 194.916C169.162 195.145 168.59 195.259 168.012 195.252ZM148.968 171.488C148.672 171.48 148.377 171.535 148.103 171.651C147.83 171.767 147.585 171.94 147.386 172.159C147.186 172.378 147.036 172.638 146.946 172.92C146.856 173.203 146.829 173.501 146.865 173.795L148.346 190.737C148.414 191.41 148.727 192.036 149.226 192.494C149.725 192.952 150.375 193.212 151.053 193.224H168.021C168.317 193.23 168.61 193.174 168.882 193.059C169.154 192.944 169.399 192.773 169.601 192.557C169.799 192.336 169.949 192.076 170.041 191.793C170.133 191.511 170.164 191.212 170.133 190.917L168.644 173.976C168.576 173.302 168.262 172.677 167.763 172.218C167.264 171.76 166.614 171.5 165.936 171.488H148.968Z" fill="#263238"/>
<g opacity="0.5">
<path d="M168.012 195.252H151.044C149.863 195.229 148.731 194.776 147.861 193.978C146.992 193.179 146.445 192.09 146.324 190.917L144.835 173.976C144.778 173.4 144.843 172.818 145.025 172.269C145.207 171.72 145.502 171.214 145.891 170.785C146.282 170.361 146.758 170.024 147.288 169.796C147.818 169.568 148.391 169.454 148.968 169.461H165.936C167.118 169.483 168.25 169.936 169.119 170.735C169.989 171.533 170.536 172.622 170.657 173.795L172.146 190.737C172.202 191.313 172.137 191.894 171.956 192.443C171.774 192.993 171.479 193.498 171.09 193.927C170.699 194.351 170.223 194.688 169.692 194.916C169.162 195.145 168.59 195.259 168.012 195.252ZM148.968 171.488C148.672 171.48 148.377 171.535 148.103 171.651C147.83 171.767 147.585 171.94 147.386 172.159C147.186 172.378 147.036 172.638 146.946 172.92C146.856 173.203 146.829 173.501 146.865 173.795L148.346 190.737C148.414 191.41 148.727 192.036 149.226 192.494C149.725 192.952 150.375 193.212 151.053 193.224H168.021C168.317 193.23 168.61 193.174 168.882 193.059C169.154 192.944 169.399 192.773 169.601 192.557C169.799 192.336 169.949 192.076 170.041 191.793C170.133 191.511 170.164 191.212 170.133 190.917L168.644 173.976C168.576 173.302 168.262 172.677 167.763 172.218C167.264 171.76 166.614 171.5 165.936 171.488H148.968Z" fill="white"/>
</g>
<path d="M154.97 189.413L142.019 177.517C141.584 177.117 141.327 176.561 141.303 175.971C141.279 175.381 141.491 174.806 141.892 174.372C142.09 174.157 142.329 173.983 142.594 173.859C142.859 173.736 143.147 173.666 143.439 173.653C143.732 173.641 144.024 173.686 144.299 173.786C144.574 173.886 144.826 174.04 145.042 174.237L154.7 183.095L173.401 162.657C173.801 162.221 174.358 161.96 174.95 161.933C175.543 161.906 176.121 162.115 176.56 162.513C176.997 162.913 177.258 163.469 177.285 164.06C177.312 164.652 177.103 165.23 176.704 165.667L154.97 189.413Z" fill="#0891B2"/>
<g opacity="0.2">
<path d="M154.97 189.413L142.019 177.517C141.584 177.117 141.327 176.561 141.303 175.971C141.279 175.381 141.491 174.806 141.892 174.372C142.09 174.157 142.329 173.983 142.594 173.859C142.859 173.736 143.147 173.666 143.439 173.653C143.732 173.641 144.024 173.686 144.299 173.786C144.574 173.886 144.826 174.04 145.042 174.237L154.7 183.095L173.401 162.657C173.801 162.221 174.358 161.96 174.95 161.933C175.543 161.906 176.121 162.115 176.56 162.513C176.997 162.913 177.258 163.469 177.285 164.06C177.312 164.652 177.103 165.23 176.704 165.667L154.97 189.413Z" fill="black"/>
</g>
<path d="M28.6294 37.1726H20.8403C19.8147 37.1537 18.7968 37.3532 17.8545 37.7578C16.9121 38.1625 16.067 38.7629 15.3752 39.5192C14.6835 40.2755 14.1611 41.1703 13.8429 42.1439C13.5246 43.1176 13.4178 44.1477 13.5295 45.1658L22.2212 144.355C22.4437 146.52 23.4526 148.529 25.0574 150.002C26.6622 151.474 28.7516 152.309 30.931 152.349H38.7201L28.6294 37.1726Z" fill="#0891B2"/>
<path opacity="0.2" d="M28.6294 37.1726H20.8403C19.8147 37.1537 18.7968 37.3532 17.8545 37.7578C16.9121 38.1625 16.067 38.7629 15.3752 39.5192C14.6835 40.2755 14.1611 41.1703 13.8429 42.1439C13.5246 43.1176 13.4178 44.1477 13.5295 45.1658L22.2212 144.355C22.4437 146.52 23.4526 148.529 25.0574 150.002C26.6622 151.474 28.7516 152.309 30.931 152.349H38.7201L28.6294 37.1726Z" fill="white"/>
<path d="M34.0357 152.349H102.288C103.312 152.366 104.329 152.166 105.271 151.76C106.212 151.355 107.056 150.755 107.747 149.998C108.437 149.242 108.959 148.348 109.277 147.375C109.594 146.402 109.701 145.373 109.589 144.355L100.907 45.1658C100.684 43.0009 99.6753 40.9923 98.0705 39.5196C96.4657 38.0468 94.3763 37.2119 92.1969 37.1726H23.945C22.9194 37.1537 21.9015 37.3532 20.9592 37.7578C20.0169 38.1625 19.1717 38.7629 18.48 39.5192C17.7883 40.2755 17.2659 41.1703 16.9476 42.1439C16.6294 43.1176 16.5225 44.1477 16.6343 45.1658L25.326 144.355C25.5484 146.52 26.5574 148.529 28.1621 150.002C29.7669 151.474 31.8564 152.309 34.0357 152.349Z" fill="#0891B2"/>
<path opacity="0.5" d="M34.0357 152.349H102.288C103.312 152.366 104.329 152.166 105.271 151.76C106.212 151.355 107.056 150.755 107.747 149.998C108.437 149.242 108.959 148.348 109.277 147.375C109.594 146.402 109.701 145.373 109.589 144.355L100.907 45.1658C100.684 43.0009 99.6753 40.9923 98.0705 39.5196C96.4657 38.0468 94.3763 37.2119 92.1969 37.1726H23.945C22.9194 37.1537 21.9015 37.3532 20.9592 37.7578C20.0169 38.1625 19.1717 38.7629 18.48 39.5192C17.7883 40.2755 17.2659 41.1703 16.9476 42.1439C16.6294 43.1176 16.5225 44.1477 16.6343 45.1658L25.326 144.355C25.5484 146.52 26.5574 148.529 28.1621 150.002C29.7669 151.474 31.8564 152.309 34.0357 152.349Z" fill="white"/>
<path d="M106.801 144.356L98.1089 45.166H19.4324L28.1241 144.356H106.801Z" fill="white"/>
<path d="M68.0083 150.636C67.3271 150.616 66.6767 150.348 66.1784 149.884C65.6802 149.42 65.3682 148.79 65.3006 148.113C65.2645 147.793 65.2973 147.47 65.3966 147.163C65.496 146.857 65.6596 146.576 65.8766 146.338C66.0936 146.1 66.359 145.911 66.655 145.783C66.951 145.656 67.2708 145.593 67.5931 145.599C68.2735 145.618 68.9238 145.883 69.4222 146.346C69.9206 146.809 70.233 147.437 70.3008 148.113C70.3352 148.433 70.3014 148.757 70.2015 149.063C70.1017 149.369 69.9382 149.65 69.7216 149.888C69.5051 150.127 69.2404 150.317 68.9451 150.446C68.6498 150.574 68.3305 150.64 68.0083 150.636ZM67.6292 146.221C67.3857 146.216 67.1439 146.262 66.9198 146.358C66.6958 146.453 66.4947 146.595 66.3299 146.774C66.1651 146.953 66.0404 147.165 65.964 147.396C65.8877 147.627 65.8615 147.871 65.8872 148.113C65.9419 148.627 66.1817 149.103 66.562 149.453C66.9423 149.802 67.4371 150.002 67.9541 150.015C68.1977 150.019 68.4393 149.971 68.663 149.874C68.8866 149.778 69.0871 149.635 69.251 149.455C69.415 149.275 69.5387 149.062 69.6139 148.831C69.689 148.6 69.714 148.355 69.687 148.113C69.6362 147.601 69.3984 147.125 69.019 146.776C68.6396 146.427 68.1449 146.229 67.6292 146.221Z" fill="#0891B2"/>
<path d="M94.6971 54.8083H88.9027L88.3972 49.0229H94.1917L94.6971 54.8083Z" fill="#263238"/>
<path d="M41.3014 54.8083H24.7393L24.2339 49.0229H40.7959L41.3014 54.8083Z" fill="#263238"/>
<path d="M98.5059 98.2073H28.5481L25.3621 61.8369H95.3108L98.5059 98.2073Z" fill="#263238"/>
<path d="M72.6024 138.065H32.0411L28.9814 103.164H69.5517L72.6024 138.065Z" fill="#263238"/>
<path d="M83.695 111.121H74.3805L73.6855 103.164H83L83.695 111.121Z" fill="#263238"/>
<path d="M96.6919 105.885H86.4929C86.127 105.878 85.7763 105.738 85.5069 105.491C85.2375 105.243 85.0682 104.906 85.0308 104.543C85.0129 104.372 85.0315 104.199 85.0852 104.036C85.139 103.873 85.2267 103.723 85.3427 103.596C85.4586 103.469 85.6002 103.368 85.758 103.3C85.9158 103.232 86.0863 103.198 86.2582 103.2H96.4572C96.8225 103.209 97.1722 103.35 97.4412 103.597C97.7101 103.844 97.8801 104.18 97.9194 104.543C97.9372 104.713 97.9186 104.886 97.8649 105.049C97.8111 105.212 97.7234 105.362 97.6074 105.489C97.4915 105.616 97.3499 105.717 97.1921 105.785C97.0343 105.853 96.8639 105.887 96.6919 105.885Z" fill="#263238"/>
<path d="M98.2893 111.121H86.9531C86.5878 111.112 86.2381 110.971 85.9691 110.724C85.7002 110.477 85.5302 110.141 85.491 109.778C85.4731 109.608 85.4917 109.435 85.5454 109.272C85.5992 109.109 85.6869 108.959 85.8029 108.832C85.9188 108.705 86.0604 108.604 86.2182 108.536C86.376 108.468 86.5465 108.433 86.7184 108.436H98.0546C98.4206 108.443 98.7713 108.583 99.0407 108.83C99.31 109.078 99.4794 109.415 99.5168 109.778C99.5346 109.949 99.5161 110.122 99.4623 110.285C99.4085 110.448 99.3208 110.598 99.2049 110.725C99.0889 110.852 98.9474 110.952 98.7896 111.021C98.6318 111.089 98.4613 111.123 98.2893 111.121Z" fill="#263238"/>
<path d="M97.6125 116.393H76.1946C75.8277 116.386 75.4759 116.246 75.205 115.999C74.9342 115.752 74.7629 115.414 74.7235 115.05C74.7041 114.879 74.7216 114.706 74.7748 114.542C74.8281 114.378 74.9157 114.228 75.032 114.101C75.1482 113.973 75.2904 113.872 75.4489 113.805C75.6074 113.737 75.7785 113.704 75.9509 113.707H97.3778C97.7443 113.712 98.0961 113.852 98.3659 114.1C98.6357 114.347 98.8045 114.686 98.84 115.05C98.8578 115.221 98.8392 115.393 98.7855 115.557C98.7317 115.72 98.644 115.87 98.528 115.996C98.4121 116.123 98.2706 116.224 98.1128 116.292C97.955 116.361 97.7845 116.395 97.6125 116.393Z" fill="#263238"/>
<path d="M99.2099 121.655H76.6458C76.2793 121.65 75.9275 121.511 75.6577 121.263C75.388 121.015 75.2192 120.677 75.1837 120.313C75.1643 120.142 75.1818 119.968 75.235 119.805C75.2883 119.641 75.3759 119.49 75.4922 119.363C75.6084 119.236 75.7506 119.135 75.9091 119.067C76.0676 119 76.2387 118.966 76.4111 118.97H98.9752C99.3417 118.975 99.6936 119.115 99.9633 119.362C100.233 119.61 100.402 119.948 100.437 120.313C100.457 120.484 100.439 120.657 100.386 120.821C100.333 120.985 100.245 121.135 100.129 121.262C100.013 121.389 99.8705 121.49 99.712 121.558C99.5535 121.626 99.3823 121.659 99.2099 121.655Z" fill="#263238"/>
<path d="M96.7731 126.927H77.1153C76.7494 126.92 76.3986 126.78 76.1293 126.532C75.8599 126.285 75.6906 125.948 75.6531 125.584C75.6338 125.413 75.6513 125.24 75.7045 125.076C75.7577 124.912 75.8454 124.762 75.9617 124.635C76.0779 124.508 76.22 124.407 76.3785 124.339C76.537 124.271 76.7082 124.238 76.8806 124.241H96.5746C96.9411 124.246 97.2929 124.386 97.5626 124.634C97.8324 124.882 98.0012 125.22 98.0367 125.584C98.0566 125.758 98.0383 125.935 97.983 126.101C97.9277 126.268 97.8367 126.42 97.7165 126.548C97.5962 126.676 97.4496 126.776 97.2867 126.841C97.1237 126.907 96.9485 126.936 96.7731 126.927Z" fill="#263238"/>
<path d="M100.185 132.199H77.6206C77.2547 132.192 76.9039 132.051 76.6346 131.804C76.3652 131.557 76.1958 131.219 76.1584 130.856C76.1406 130.685 76.1592 130.513 76.2129 130.349C76.2667 130.186 76.3544 130.036 76.4704 129.91C76.5863 129.783 76.7278 129.682 76.8856 129.614C77.0434 129.545 77.2139 129.511 77.3859 129.513H99.95C100.315 129.522 100.665 129.663 100.934 129.91C101.203 130.157 101.373 130.493 101.412 130.856C101.43 131.027 101.411 131.199 101.358 131.363C101.304 131.526 101.216 131.676 101.1 131.802C100.984 131.929 100.843 132.03 100.685 132.098C100.527 132.167 100.357 132.201 100.185 132.199Z" fill="#263238"/>
<path d="M93.5869 137.47H78.0357C77.6698 137.463 77.3191 137.323 77.0497 137.076C76.7803 136.828 76.611 136.491 76.5735 136.128C76.5542 135.957 76.5717 135.783 76.6249 135.62C76.6782 135.456 76.7658 135.305 76.8821 135.178C76.9983 135.051 77.1405 134.95 77.299 134.882C77.4575 134.814 77.6286 134.781 77.801 134.785H93.3522C93.7187 134.79 94.0705 134.93 94.3403 135.177C94.6101 135.425 94.7789 135.763 94.8144 136.128C94.8322 136.298 94.8137 136.471 94.7599 136.634C94.7061 136.797 94.6184 136.947 94.5024 137.074C94.3865 137.201 94.245 137.302 94.0872 137.37C93.9294 137.438 93.7589 137.473 93.5869 137.47Z" fill="#263238"/>
<path opacity="0.9" d="M94.6971 54.8083H88.9027L88.3972 49.0229H94.1917L94.6971 54.8083Z" fill="white"/>
<path opacity="0.9" d="M41.3014 54.8083H24.7393L24.2339 49.0229H40.7959L41.3014 54.8083Z" fill="white"/>
<path opacity="0.9" d="M98.5059 98.2073H28.5481L25.3621 61.8369H95.3108L98.5059 98.2073Z" fill="white"/>
<path opacity="0.9" d="M72.6024 138.065H32.0411L28.9814 103.164H69.5517L72.6024 138.065Z" fill="white"/>
<path opacity="0.9" d="M83.695 111.121H74.3805L73.6855 103.164H83L83.695 111.121Z" fill="white"/>
<path opacity="0.9" d="M96.6919 105.885H86.4929C86.127 105.878 85.7763 105.738 85.5069 105.491C85.2375 105.243 85.0682 104.906 85.0308 104.543C85.0129 104.372 85.0315 104.199 85.0852 104.036C85.139 103.873 85.2267 103.723 85.3427 103.596C85.4586 103.469 85.6002 103.368 85.758 103.3C85.9158 103.232 86.0863 103.198 86.2582 103.2H96.4572C96.8225 103.209 97.1722 103.35 97.4412 103.597C97.7101 103.844 97.8801 104.18 97.9194 104.543C97.9372 104.713 97.9186 104.886 97.8649 105.049C97.8111 105.212 97.7234 105.362 97.6074 105.489C97.4915 105.616 97.3499 105.717 97.1921 105.785C97.0343 105.853 96.8639 105.887 96.6919 105.885Z" fill="white"/>
<path opacity="0.9" d="M98.2893 111.121H86.9531C86.5878 111.112 86.2381 110.971 85.9691 110.724C85.7002 110.477 85.5302 110.141 85.491 109.778C85.4731 109.608 85.4917 109.435 85.5454 109.272C85.5992 109.109 85.6869 108.959 85.8029 108.832C85.9188 108.705 86.0604 108.604 86.2182 108.536C86.376 108.468 86.5465 108.433 86.7184 108.436H98.0546C98.4206 108.443 98.7713 108.583 99.0407 108.83C99.31 109.078 99.4794 109.415 99.5168 109.778C99.5346 109.949 99.5161 110.122 99.4623 110.285C99.4085 110.448 99.3208 110.598 99.2049 110.725C99.0889 110.852 98.9474 110.952 98.7896 111.021C98.6318 111.089 98.4613 111.123 98.2893 111.121Z" fill="white"/>
<path opacity="0.9" d="M97.6125 116.393H76.1946C75.8277 116.386 75.4759 116.246 75.205 115.999C74.9342 115.752 74.7629 115.414 74.7235 115.05C74.7041 114.879 74.7216 114.706 74.7748 114.542C74.8281 114.378 74.9157 114.228 75.032 114.101C75.1482 113.973 75.2904 113.872 75.4489 113.805C75.6074 113.737 75.7785 113.704 75.9509 113.707H97.3778C97.7443 113.712 98.0961 113.852 98.3659 114.1C98.6357 114.347 98.8045 114.686 98.84 115.05C98.8578 115.221 98.8392 115.393 98.7855 115.557C98.7317 115.72 98.644 115.87 98.528 115.996C98.4121 116.123 98.2706 116.224 98.1128 116.292C97.955 116.361 97.7845 116.395 97.6125 116.393Z" fill="white"/>
<path opacity="0.9" d="M99.2099 121.655H76.6458C76.2793 121.65 75.9275 121.511 75.6577 121.263C75.388 121.015 75.2192 120.677 75.1837 120.313C75.1643 120.142 75.1818 119.968 75.235 119.805C75.2883 119.641 75.3759 119.49 75.4922 119.363C75.6084 119.236 75.7506 119.135 75.9091 119.067C76.0676 119 76.2387 118.966 76.4111 118.97H98.9752C99.3417 118.975 99.6936 119.115 99.9633 119.362C100.233 119.61 100.402 119.948 100.437 120.313C100.457 120.484 100.439 120.657 100.386 120.821C100.333 120.985 100.245 121.135 100.129 121.262C100.013 121.389 99.8705 121.49 99.712 121.558C99.5535 121.626 99.3823 121.659 99.2099 121.655Z" fill="white"/>
<path opacity="0.9" d="M96.7731 126.927H77.1153C76.7494 126.92 76.3986 126.78 76.1293 126.532C75.8599 126.285 75.6906 125.948 75.6531 125.584C75.6338 125.413 75.6513 125.24 75.7045 125.076C75.7577 124.912 75.8454 124.762 75.9617 124.635C76.0779 124.508 76.22 124.407 76.3785 124.339C76.537 124.271 76.7082 124.238 76.8806 124.241H96.5746C96.9411 124.246 97.2929 124.386 97.5626 124.634C97.8324 124.882 98.0012 125.22 98.0367 125.584C98.0566 125.758 98.0383 125.935 97.983 126.101C97.9277 126.268 97.8367 126.42 97.7165 126.548C97.5962 126.676 97.4496 126.776 97.2867 126.841C97.1237 126.907 96.9485 126.936 96.7731 126.927Z" fill="white"/>
<path opacity="0.9" d="M100.185 132.199H77.6206C77.2547 132.192 76.9039 132.051 76.6346 131.804C76.3652 131.557 76.1958 131.219 76.1584 130.856C76.1406 130.685 76.1592 130.513 76.2129 130.349C76.2667 130.186 76.3544 130.036 76.4704 129.91C76.5863 129.783 76.7278 129.682 76.8856 129.614C77.0434 129.545 77.2139 129.511 77.3859 129.513H99.95C100.315 129.522 100.665 129.663 100.934 129.91C101.203 130.157 101.373 130.493 101.412 130.856C101.43 131.027 101.411 131.199 101.358 131.363C101.304 131.526 101.216 131.676 101.1 131.802C100.984 131.929 100.843 132.03 100.685 132.098C100.527 132.167 100.357 132.201 100.185 132.199Z" fill="white"/>
<path opacity="0.9" d="M93.5869 137.47H78.0357C77.6698 137.463 77.3191 137.323 77.0497 137.076C76.7803 136.828 76.611 136.491 76.5735 136.128C76.5542 135.957 76.5717 135.783 76.6249 135.62C76.6782 135.456 76.7658 135.305 76.8821 135.178C76.9983 135.051 77.1405 134.95 77.299 134.882C77.4575 134.814 77.6286 134.781 77.801 134.785H93.3522C93.7187 134.79 94.0705 134.93 94.3403 135.177C94.6101 135.425 94.7789 135.763 94.8144 136.128C94.8322 136.298 94.8137 136.471 94.7599 136.634C94.7061 136.797 94.6184 136.947 94.5024 137.074C94.3865 137.201 94.245 137.302 94.0872 137.37C93.9294 137.438 93.7589 137.473 93.5869 137.47Z" fill="white"/>
<path d="M76.4113 98.4777H61.1399C60.076 98.459 59.0558 98.0515 58.2724 97.3325C57.4891 96.6134 56.9968 95.6327 56.8888 94.5757L55.553 79.3283C55.498 78.8109 55.5537 78.2877 55.7163 77.7933C55.8788 77.299 56.1446 76.8447 56.4961 76.4606C56.8476 76.0764 57.2768 75.7711 57.7552 75.5649C58.2337 75.3586 58.7505 75.2561 59.2716 75.2641H74.5339C75.5989 75.2826 76.6201 75.6898 77.405 76.4086C78.1898 77.1275 78.684 78.1084 78.7941 79.1661L80.1298 94.4135C80.1806 94.9328 80.1216 95.457 79.9569 95.9522C79.7921 96.4473 79.5251 96.9025 79.1731 97.2882C78.8222 97.6689 78.3949 97.9716 77.919 98.1765C77.4432 98.3815 76.9295 98.4841 76.4113 98.4777ZM59.2626 77.0934C58.9935 77.0769 58.724 77.1207 58.4741 77.2217C58.2242 77.3227 58.0001 77.4783 57.8183 77.6771C57.6365 77.8759 57.5016 78.1128 57.4236 78.3705C57.3455 78.6282 57.3262 78.9 57.3672 79.1661L58.703 94.4135C58.7646 95.0178 59.0455 95.5786 59.4927 95.9903C59.94 96.402 60.5227 96.6361 61.1309 96.6484H76.4022C76.6671 96.6547 76.9303 96.605 77.1745 96.5024C77.4188 96.3999 77.6385 96.247 77.8193 96.0536C77.9977 95.8541 78.1325 95.6196 78.2149 95.3651C78.2972 95.1106 78.3254 94.8418 78.2976 94.5757L76.9618 79.3283C76.9001 78.7225 76.6179 78.1604 76.1687 77.7485C75.7196 77.3366 75.1347 77.1035 74.5249 77.0934H59.2626Z" fill="#263238"/>
<g opacity="0.5">
<path d="M76.4113 98.4777H61.1399C60.076 98.459 59.0558 98.0515 58.2724 97.3325C57.4891 96.6134 56.9968 95.6327 56.8888 94.5757L55.553 79.3283C55.498 78.8109 55.5537 78.2877 55.7163 77.7933C55.8788 77.299 56.1446 76.8447 56.4961 76.4606C56.8476 76.0764 57.2768 75.7711 57.7552 75.5649C58.2337 75.3586 58.7505 75.2561 59.2716 75.2641H74.5339C75.5989 75.2826 76.6201 75.6898 77.405 76.4086C78.1898 77.1275 78.684 78.1084 78.7941 79.1661L80.1298 94.4135C80.1806 94.9328 80.1216 95.457 79.9569 95.9522C79.7921 96.4473 79.5251 96.9025 79.1731 97.2882C78.8222 97.6689 78.3949 97.9716 77.919 98.1765C77.4432 98.3815 76.9295 98.4841 76.4113 98.4777ZM59.2626 77.0934C58.9935 77.0769 58.724 77.1207 58.4741 77.2217C58.2242 77.3227 58.0001 77.4783 57.8183 77.6771C57.6365 77.8759 57.5016 78.1128 57.4236 78.3705C57.3455 78.6282 57.3262 78.9 57.3672 79.1661L58.703 94.4135C58.7646 95.0178 59.0455 95.5786 59.4927 95.9903C59.94 96.402 60.5227 96.6361 61.1309 96.6484H76.4022C76.6671 96.6547 76.9303 96.605 77.1745 96.5024C77.4188 96.3999 77.6385 96.247 77.8193 96.0536C77.9977 95.8541 78.1325 95.6196 78.2149 95.3651C78.2972 95.1106 78.3254 94.8418 78.2976 94.5757L76.9618 79.3283C76.9001 78.7225 76.6179 78.1604 76.1687 77.7485C75.7196 77.3366 75.1347 77.1035 74.5249 77.0934H59.2626Z" fill="white"/>
</g>
<path d="M64.6688 93.269L53.0167 82.5633C52.8213 82.3852 52.6632 82.1703 52.5515 81.9309C52.4398 81.6915 52.3766 81.4323 52.3657 81.1684C52.3548 80.9045 52.3963 80.6411 52.4879 80.3933C52.5795 80.1455 52.7194 79.9183 52.8994 79.7247C53.2606 79.3356 53.7613 79.1049 54.2922 79.083C54.8231 79.061 55.3412 79.2496 55.7334 79.6075L64.4251 87.5827L81.2309 69.1182C81.5899 68.7238 82.0912 68.4881 82.6243 68.4627C83.1575 68.4374 83.6789 68.6245 84.0739 68.983C84.4676 69.3427 84.7021 69.8439 84.7258 70.3762C84.7495 70.9085 84.5604 71.4284 84.2003 71.8216L64.6688 93.269Z" fill="#0891B2"/>
<g opacity="0.2">
<path d="M64.6688 93.269L53.0167 82.5633C52.8213 82.3852 52.6632 82.1703 52.5515 81.9309C52.4398 81.6915 52.3766 81.4323 52.3657 81.1684C52.3548 80.9045 52.3963 80.6411 52.4879 80.3933C52.5795 80.1455 52.7194 79.9183 52.8994 79.7247C53.2606 79.3356 53.7613 79.1049 54.2922 79.083C54.8231 79.061 55.3412 79.2496 55.7334 79.6075L64.4251 87.5827L81.2309 69.1182C81.5899 68.7238 82.0912 68.4881 82.6243 68.4627C83.1575 68.4374 83.6789 68.6245 84.0739 68.983C84.4676 69.3427 84.7021 69.8439 84.7258 70.3762C84.7495 70.9085 84.5604 71.4284 84.2003 71.8216L64.6688 93.269Z" fill="black"/>
</g>
<path d="M23.9992 203.921H18.3401C17.806 203.911 17.2759 204.016 16.7852 204.226C16.2945 204.437 15.8544 204.75 15.4941 205.144C15.1338 205.538 14.8616 206.004 14.6956 206.511C14.5296 207.018 14.4736 207.554 14.5313 208.084L20.8493 280.122C20.9635 281.246 21.4853 282.29 22.3164 283.057C23.1475 283.823 24.2307 284.26 25.3621 284.285H31.0482L23.9992 203.921Z" fill="#0891B2"/>
<path opacity="0.2" d="M23.9992 203.921H18.3401C17.806 203.911 17.2759 204.016 16.7852 204.226C16.2945 204.437 15.8544 204.75 15.4941 205.144C15.1338 205.538 14.8616 206.004 14.6956 206.511C14.5296 207.018 14.4736 207.554 14.5313 208.084L20.8493 280.122C20.9635 281.246 21.4853 282.29 22.3164 283.057C23.1475 283.823 24.2307 284.26 25.3621 284.285H31.0482L23.9992 203.921Z" fill="white"/>
<path d="M116.097 284.312H27.844C26.7127 284.287 25.6295 283.85 24.7983 283.084C23.9672 282.317 23.4454 281.273 23.3312 280.149L17.0133 208.111C16.9555 207.581 17.0115 207.044 17.1775 206.537C17.3435 206.03 17.6157 205.565 17.976 205.171C18.3363 204.777 18.7764 204.464 19.2672 204.253C19.7579 204.042 20.2879 203.938 20.8221 203.948H109.075C110.206 203.973 111.289 204.41 112.12 205.177C112.952 205.943 113.473 206.987 113.588 208.111L119.906 280.149C119.965 280.68 119.91 281.217 119.744 281.724C119.579 282.232 119.307 282.698 118.946 283.093C118.586 283.487 118.145 283.799 117.653 284.01C117.162 284.22 116.631 284.323 116.097 284.312Z" fill="#0891B2"/>
<path opacity="0.5" d="M116.097 284.312H27.844C26.7127 284.287 25.6295 283.85 24.7983 283.084C23.9672 282.317 23.4454 281.273 23.3312 280.149L17.0133 208.111C16.9555 207.581 17.0115 207.044 17.1775 206.537C17.3435 206.03 17.6157 205.565 17.976 205.171C18.3363 204.777 18.7764 204.464 19.2672 204.253C19.7579 204.042 20.2879 203.938 20.8221 203.948H109.075C110.206 203.973 111.289 204.41 112.12 205.177C112.952 205.943 113.473 206.987 113.588 208.111L119.906 280.149C119.965 280.68 119.91 281.217 119.744 281.724C119.579 282.232 119.307 282.698 118.946 283.093C118.586 283.487 118.145 283.799 117.653 284.01C117.162 284.22 116.631 284.323 116.097 284.312Z" fill="white"/>
<path d="M77.6206 278.311H174.195V280.258C174.195 281.692 173.624 283.067 172.609 284.081C171.593 285.095 170.216 285.664 168.78 285.664H77.6206V278.32V278.311Z" fill="#0891B2"/>
<path opacity="0.2" d="M77.6206 278.311H174.195V280.258C174.195 281.692 173.624 283.067 172.609 284.081C171.593 285.095 170.216 285.664 168.78 285.664H77.6206V278.32V278.311Z" fill="white"/>
<path opacity="0.4" d="M133.886 281.988H126.17C125.194 281.985 124.26 281.597 123.571 280.908C122.883 280.218 122.496 279.285 122.496 278.311H137.569C137.569 279.286 137.181 280.221 136.49 280.911C135.8 281.6 134.863 281.988 133.886 281.988Z" fill="white"/>
<path d="M114.346 272.111L108.795 208.742H21.9053L27.456 272.111H114.346Z" fill="white"/>
<path d="M69.1996 206.372C69.2151 206.508 69.2012 206.646 69.1591 206.776C69.1169 206.907 69.0474 207.027 68.9551 207.128C68.8629 207.23 68.7501 207.31 68.6241 207.365C68.4982 207.419 68.3621 207.447 68.2249 207.444C67.9319 207.439 67.6509 207.328 67.4348 207.13C67.2186 206.933 67.0823 206.663 67.0515 206.372C67.036 206.235 67.0501 206.096 67.0928 205.965C67.1355 205.834 67.2058 205.714 67.299 205.612C67.3922 205.511 67.5062 205.43 67.6332 205.376C67.7602 205.322 67.8974 205.296 68.0353 205.3C68.3279 205.303 68.6089 205.414 68.8239 205.612C69.039 205.81 69.1729 206.081 69.1996 206.372Z" fill="#263238"/>
<path d="M23.6021 278.311H84.146V280.258C84.146 281.692 83.5755 283.067 82.5599 284.081C81.5443 285.095 80.1669 285.664 78.7307 285.664H29.0174C27.5812 285.664 26.2038 285.095 25.1882 284.081C24.1726 283.067 23.6021 281.692 23.6021 280.258V278.311Z" fill="#0891B2"/>
<path opacity="0.4" d="M33.0609 282.672H28.8821C28.6427 282.672 28.4131 282.577 28.2438 282.408C28.0746 282.239 27.9795 282.01 27.9795 281.771C27.9795 281.532 28.0746 281.303 28.2438 281.134C28.4131 280.965 28.6427 280.87 28.8821 280.87H33.079C33.3184 280.87 33.5479 280.965 33.7172 281.134C33.8865 281.303 33.9815 281.532 33.9815 281.771C33.9816 281.891 33.9576 282.01 33.9112 282.12C33.8647 282.231 33.7966 282.331 33.7108 282.415C33.6251 282.499 33.5235 282.565 33.4119 282.609C33.3003 282.653 33.181 282.675 33.0609 282.672Z" fill="white"/>
<path opacity="0.4" d="M42.0866 282.672H37.9077C37.6683 282.672 37.4387 282.577 37.2695 282.408C37.1002 282.239 37.0051 282.01 37.0051 281.771C37.0051 281.532 37.1002 281.303 37.2695 281.134C37.4387 280.965 37.6683 280.87 37.9077 280.87H42.1046C42.344 280.87 42.5736 280.965 42.7428 281.134C42.9121 281.303 43.0072 281.532 43.0072 281.771C43.0072 281.891 42.9833 282.01 42.9368 282.12C42.8903 282.231 42.8222 282.331 42.7365 282.415C42.6507 282.499 42.5491 282.565 42.4375 282.609C42.3259 282.653 42.2066 282.675 42.0866 282.672Z" fill="white"/>
<path d="M41.3735 218.772H26.7159L26.2195 213.086H40.8771L41.3735 218.772Z" fill="#263238"/>
<path d="M72.9724 215.15H63.7933L63.6128 213.086H72.7919L72.9724 215.15Z" fill="#263238"/>
<path d="M84.0107 215.15H74.8316L74.6511 213.086H83.8302L84.0107 215.15Z" fill="#263238"/>
<path d="M95.049 215.15H85.87L85.6895 213.086H94.8685L95.049 215.15Z" fill="#263238"/>
<path d="M106.087 215.15H96.9083L96.7278 213.086H105.907L106.087 215.15Z" fill="#263238"/>
<path d="M107.757 234.272H28.0789L26.9868 221.872H106.674L107.757 234.272Z" fill="#263238"/>
<path d="M79.6964 260.441H30.3713L28.2683 236.507H77.6025L79.6964 260.441Z" fill="#263238"/>
<path d="M66.0677 265.262H31.9147C31.6077 265.261 31.3119 265.147 31.0851 264.94C30.8582 264.733 30.7164 264.45 30.6872 264.145C30.6719 264.003 30.6869 263.859 30.7314 263.723C30.7758 263.587 30.8487 263.462 30.9451 263.357C31.0415 263.251 31.1593 263.167 31.2907 263.11C31.422 263.054 31.564 263.025 31.7071 263.027H65.8872C66.1915 263.034 66.4829 263.152 66.7071 263.357C66.9313 263.563 67.0729 263.843 67.1057 264.145C67.1213 264.289 67.1058 264.434 67.0603 264.571C67.0148 264.708 66.9403 264.834 66.8419 264.94C66.7435 265.046 66.6234 265.129 66.4899 265.185C66.3563 265.241 66.2124 265.267 66.0677 265.262Z" fill="#263238"/>
<path d="M62.7553 268.885H32.2306C31.9257 268.88 31.6333 268.763 31.4087 268.557C31.1841 268.351 31.043 268.07 31.0121 267.768C30.9969 267.625 31.0119 267.481 31.0563 267.345C31.1007 267.208 31.1734 267.083 31.2697 266.977C31.3659 266.87 31.4836 266.785 31.615 266.728C31.7463 266.67 31.8885 266.64 32.032 266.641H62.5658C62.8715 266.648 63.164 266.767 63.3884 266.974C63.6127 267.182 63.7535 267.464 63.7842 267.768C63.7997 267.91 63.7844 268.055 63.7394 268.191C63.6944 268.328 63.6208 268.453 63.5234 268.559C63.426 268.665 63.307 268.749 63.1746 268.805C63.0421 268.861 62.8992 268.888 62.7553 268.885Z" fill="#263238"/>
<path d="M105.961 251.871H85.9332C85.6273 251.867 85.3338 251.75 85.1077 251.545C84.8817 251.339 84.7387 251.058 84.7057 250.754C84.6904 250.611 84.7057 250.466 84.7506 250.329C84.7955 250.192 84.869 250.066 84.9663 249.96C85.0635 249.853 85.1823 249.768 85.3148 249.711C85.4472 249.654 85.5903 249.625 85.7347 249.628H105.763C106.069 249.633 106.362 249.751 106.587 249.958C106.812 250.166 106.952 250.449 106.981 250.754C106.998 250.896 106.984 251.041 106.94 251.177C106.896 251.314 106.823 251.439 106.727 251.545C106.63 251.651 106.511 251.735 106.379 251.791C106.247 251.848 106.105 251.875 105.961 251.871Z" fill="#263238"/>
<path d="M102.658 255.476H86.2491C85.9436 255.473 85.6501 255.357 85.4251 255.151C85.2001 254.944 85.0596 254.662 85.0306 254.358C85.0138 254.216 85.0277 254.072 85.0716 253.935C85.1155 253.799 85.1883 253.673 85.285 253.567C85.3817 253.461 85.5002 253.377 85.6322 253.321C85.7643 253.265 85.9069 253.237 86.0505 253.241H102.459C102.765 253.244 103.058 253.36 103.283 253.566C103.508 253.773 103.649 254.055 103.678 254.358C103.694 254.501 103.68 254.645 103.637 254.782C103.593 254.918 103.52 255.044 103.423 255.15C103.326 255.256 103.208 255.34 103.076 255.396C102.944 255.452 102.801 255.479 102.658 255.476Z" fill="#263238"/>
<path d="M107.523 247.357H84.0739L83.1172 236.507H106.575L107.523 247.357Z" fill="#263238"/>
<path d="M109.436 269.146H85.9782L85.0305 258.296H108.488L109.436 269.146Z" fill="#263238"/>
<g opacity="0.9">
<path d="M41.3735 218.772H26.7159L26.2195 213.086H40.8771L41.3735 218.772Z" fill="white"/>
<path d="M72.9724 215.15H63.7933L63.6128 213.086H72.7919L72.9724 215.15Z" fill="white"/>
<path d="M84.0107 215.15H74.8316L74.6511 213.086H83.8302L84.0107 215.15Z" fill="white"/>
<path d="M95.049 215.15H85.87L85.6895 213.086H94.8685L95.049 215.15Z" fill="white"/>
<path d="M106.087 215.15H96.9083L96.7278 213.086H105.907L106.087 215.15Z" fill="white"/>
<path d="M107.757 234.272H28.0787L26.9866 221.872H106.674L107.757 234.272Z" fill="white"/>
<path d="M79.6964 260.441H30.3713L28.2683 236.507H77.6025L79.6964 260.441Z" fill="white"/>
<path d="M66.0677 265.262H31.9147C31.6077 265.261 31.3119 265.147 31.0851 264.94C30.8582 264.733 30.7164 264.45 30.6872 264.145C30.6719 264.003 30.6869 263.859 30.7314 263.723C30.7758 263.587 30.8487 263.462 30.9451 263.357C31.0415 263.251 31.1593 263.167 31.2907 263.11C31.422 263.054 31.564 263.025 31.7071 263.027H65.8872C66.1915 263.034 66.4829 263.152 66.7071 263.357C66.9313 263.563 67.0729 263.843 67.1057 264.145C67.1213 264.289 67.1058 264.434 67.0603 264.571C67.0148 264.708 66.9403 264.834 66.8419 264.94C66.7435 265.046 66.6234 265.129 66.4899 265.185C66.3563 265.241 66.2124 265.267 66.0677 265.262Z" fill="white"/>
<path d="M62.7553 268.885H32.2306C31.9257 268.88 31.6333 268.763 31.4087 268.557C31.1841 268.351 31.043 268.07 31.0121 267.768C30.9969 267.625 31.0119 267.481 31.0563 267.345C31.1007 267.208 31.1734 267.083 31.2697 266.977C31.3659 266.87 31.4836 266.785 31.615 266.728C31.7463 266.67 31.8885 266.64 32.032 266.641H62.5658C62.8715 266.648 63.164 266.767 63.3884 266.974C63.6127 267.182 63.7535 267.464 63.7842 267.768C63.7997 267.91 63.7844 268.055 63.7394 268.191C63.6944 268.328 63.6208 268.453 63.5234 268.559C63.426 268.665 63.307 268.749 63.1746 268.805C63.0421 268.861 62.8992 268.888 62.7553 268.885Z" fill="white"/>
<path d="M105.961 251.871H85.9332C85.6273 251.867 85.3338 251.75 85.1077 251.545C84.8817 251.339 84.7387 251.058 84.7057 250.754C84.6904 250.611 84.7057 250.466 84.7506 250.329C84.7955 250.192 84.869 250.066 84.9663 249.96C85.0635 249.853 85.1823 249.768 85.3148 249.711C85.4472 249.654 85.5903 249.625 85.7347 249.628H105.763C106.069 249.633 106.362 249.751 106.587 249.958C106.812 250.166 106.952 250.449 106.981 250.754C106.998 250.896 106.984 251.041 106.94 251.177C106.896 251.314 106.823 251.439 106.727 251.545C106.63 251.651 106.511 251.735 106.379 251.791C106.247 251.848 106.105 251.875 105.961 251.871Z" fill="white"/>
<path d="M102.658 255.476H86.2491C85.9436 255.473 85.6501 255.357 85.4251 255.151C85.2001 254.944 85.0596 254.662 85.0306 254.358C85.0138 254.216 85.0277 254.072 85.0716 253.935C85.1155 253.799 85.1883 253.673 85.285 253.567C85.3817 253.461 85.5002 253.377 85.6322 253.321C85.7643 253.265 85.9069 253.237 86.0505 253.241H102.459C102.765 253.244 103.058 253.36 103.283 253.566C103.508 253.773 103.649 254.055 103.678 254.358C103.694 254.501 103.68 254.645 103.637 254.782C103.593 254.918 103.52 255.044 103.423 255.15C103.326 255.256 103.208 255.34 103.076 255.396C102.944 255.452 102.801 255.479 102.658 255.476Z" fill="white"/>
<path d="M107.523 247.357H84.0739L83.1172 236.507H106.575L107.523 247.357Z" fill="white"/>
<path d="M109.436 269.146H85.9782L85.0305 258.296H108.488L109.436 269.146Z" fill="white"/>
</g>
<path d="M81.6821 251.051H64.7139C63.5327 251.029 62.4006 250.576 61.531 249.777C60.6614 248.979 60.1145 247.89 59.9935 246.717L58.5043 229.775C58.4457 229.201 58.5094 228.621 58.6912 228.073C58.873 227.526 59.1688 227.022 59.5592 226.597C59.9496 226.171 60.4258 225.833 60.9564 225.604C61.487 225.375 62.0601 225.261 62.638 225.269H79.6062C80.7874 225.292 81.9196 225.745 82.7892 226.544C83.6588 227.342 84.2056 228.431 84.3266 229.604L85.8159 246.546C85.8745 247.12 85.8108 247.7 85.629 248.247C85.4472 248.795 85.1514 249.298 84.761 249.724C84.3706 250.149 83.8944 250.488 83.3638 250.717C82.8332 250.945 82.2601 251.059 81.6821 251.051ZM62.638 227.288C62.3429 227.284 62.0503 227.342 61.7784 227.456C61.5066 227.571 61.2615 227.741 61.0585 227.955C60.8597 228.175 60.7101 228.436 60.6199 228.719C60.5296 229.001 60.5007 229.3 60.5351 229.595L62.0153 246.537C62.0836 247.21 62.397 247.835 62.896 248.294C63.395 248.752 64.045 249.012 64.7229 249.024H81.6912C81.9881 249.032 82.2835 248.977 82.557 248.861C82.8306 248.745 83.0759 248.572 83.2764 248.353C83.4768 248.134 83.6276 247.875 83.7185 247.592C83.8095 247.31 83.8383 247.011 83.8032 246.717L82.3139 229.775C82.2456 229.102 81.9322 228.476 81.4332 228.018C80.9342 227.56 80.2842 227.3 79.6062 227.288H62.638Z" fill="#263238"/>
<g opacity="0.5">
<path d="M81.6821 251.051H64.7139C63.5327 251.029 62.4006 250.576 61.531 249.777C60.6614 248.979 60.1145 247.89 59.9935 246.717L58.5043 229.775C58.4457 229.201 58.5094 228.621 58.6912 228.073C58.873 227.526 59.1688 227.022 59.5592 226.597C59.9496 226.171 60.4258 225.833 60.9564 225.604C61.487 225.375 62.0601 225.261 62.638 225.269H79.6062C80.7874 225.292 81.9196 225.745 82.7892 226.544C83.6588 227.342 84.2056 228.431 84.3266 229.604L85.8159 246.546C85.8745 247.12 85.8108 247.7 85.629 248.247C85.4472 248.795 85.1514 249.298 84.761 249.724C84.3706 250.149 83.8944 250.488 83.3638 250.717C82.8332 250.945 82.2601 251.059 81.6821 251.051ZM62.638 227.288C62.3429 227.284 62.0503 227.342 61.7784 227.456C61.5066 227.571 61.2615 227.741 61.0585 227.955C60.8597 228.175 60.7101 228.436 60.6199 228.719C60.5296 229.001 60.5007 229.3 60.5351 229.595L62.0153 246.537C62.0836 247.21 62.397 247.835 62.896 248.294C63.395 248.752 64.045 249.012 64.7229 249.024H81.6912C81.9881 249.032 82.2835 248.977 82.557 248.861C82.8306 248.745 83.0759 248.572 83.2764 248.353C83.4768 248.134 83.6276 247.875 83.7185 247.592C83.8095 247.31 83.8383 247.011 83.8032 246.717L82.3139 229.775C82.2456 229.102 81.9322 228.476 81.4332 228.018C80.9342 227.56 80.2842 227.3 79.6062 227.288H62.638Z" fill="white"/>
</g>
<path d="M68.64 245.211L55.6882 233.325C55.2541 232.923 54.9964 232.367 54.9711 231.776C54.9457 231.186 55.1548 230.609 55.5529 230.171C55.7508 229.956 55.9893 229.782 56.2547 229.658C56.5201 229.535 56.8073 229.465 57.0998 229.452C57.3923 229.44 57.6844 229.485 57.9595 229.585C58.2345 229.685 58.4871 229.838 58.7028 230.036L68.3602 238.903L87.0614 218.429C87.4615 217.993 88.0188 217.732 88.611 217.705C89.2032 217.678 89.782 217.887 90.2203 218.285C90.6579 218.685 90.9188 219.241 90.9458 219.832C90.9729 220.424 90.7639 221.002 90.3647 221.439L68.64 245.211Z" fill="#0891B2"/>
<g opacity="0.2">
<path d="M68.64 245.211L55.6882 233.325C55.2541 232.923 54.9964 232.367 54.9711 231.776C54.9457 231.186 55.1548 230.609 55.5529 230.171C55.7508 229.956 55.9893 229.782 56.2547 229.658C56.5201 229.535 56.8073 229.465 57.0998 229.452C57.3923 229.44 57.6844 229.485 57.9595 229.585C58.2345 229.685 58.4871 229.838 58.7028 230.036L68.3602 238.903L87.0614 218.429C87.4615 217.993 88.0188 217.732 88.611 217.705C89.2032 217.678 89.782 217.887 90.2203 218.285C90.6579 218.685 90.9188 219.241 90.9458 219.832C90.9729 220.424 90.7639 221.002 90.3647 221.439L68.64 245.211Z" fill="black"/>
</g>
<path d="M287.593 215.014H298.297C301.011 215.01 303.624 213.989 305.619 212.153C307.615 210.318 308.848 207.801 309.074 205.101L311.024 180.446L306.962 180.122L305.012 204.777C304.872 206.461 304.105 208.031 302.862 209.177C301.618 210.323 299.99 210.962 298.297 210.968H287.593V215.014Z" fill="#263238"/>
<path opacity="0.3" d="M287.593 215.014H298.297C301.011 215.01 303.624 213.989 305.619 212.153C307.615 210.318 308.848 207.801 309.074 205.101L311.024 180.446L306.962 180.122L305.012 204.777C304.872 206.461 304.105 208.031 302.862 209.177C301.618 210.323 299.99 210.962 298.297 210.968H287.593V215.014Z" fill="white"/>
<path opacity="0.2" d="M302.467 209.517L301.835 212.41C301.638 213.266 301.256 214.068 300.716 214.762C299.924 214.95 299.112 215.046 298.297 215.05H287.593V210.977H298.297C299.813 210.976 301.283 210.461 302.467 209.517Z" fill="black"/>
<path d="M292.999 183.05C291.774 182.925 290.647 182.322 289.865 181.372C289.082 180.422 288.707 179.202 288.82 177.977L292.061 146.437C292.123 145.827 292.304 145.235 292.596 144.695C292.887 144.155 293.282 143.677 293.758 143.29C294.234 142.903 294.782 142.613 295.37 142.437C295.959 142.261 296.576 142.202 297.187 142.264H328.145C328.553 142.305 328.949 142.426 329.309 142.619C329.67 142.813 329.989 143.077 330.247 143.394C330.506 143.712 330.699 144.077 330.815 144.469C330.931 144.862 330.969 145.273 330.925 145.68L327.378 180.329C327.294 181.151 326.886 181.906 326.245 182.428C325.603 182.95 324.781 183.197 323.957 183.114L292.999 183.05Z" fill="#0891B2"/>
<path opacity="0.3" d="M292.999 183.05C291.774 182.925 290.647 182.322 289.865 181.372C289.082 180.422 288.707 179.202 288.82 177.977L292.061 146.437C292.123 145.827 292.304 145.235 292.596 144.695C292.887 144.155 293.282 143.677 293.758 143.29C294.234 142.903 294.782 142.613 295.37 142.437C295.959 142.261 296.576 142.202 297.187 142.264H328.145C328.553 142.305 328.949 142.426 329.309 142.619C329.67 142.813 329.989 143.077 330.247 143.394C330.506 143.712 330.699 144.077 330.815 144.469C330.931 144.862 330.969 145.273 330.925 145.68L327.378 180.329C327.294 181.151 326.886 181.906 326.245 182.428C325.603 182.95 324.781 183.197 323.957 183.114L292.999 183.05Z" fill="black"/>
<path d="M327.378 180.266L330.934 145.617C331.017 144.795 330.77 143.973 330.247 143.333C329.724 142.693 328.968 142.286 328.145 142.201C327.534 142.139 326.917 142.198 326.328 142.374C325.74 142.55 325.192 142.84 324.716 143.227C324.24 143.614 323.845 144.092 323.554 144.632C323.262 145.172 323.081 145.764 323.019 146.374L319.778 177.914C319.716 178.524 319.775 179.14 319.951 179.728C320.127 180.315 320.418 180.862 320.806 181.338C321.194 181.813 321.672 182.207 322.213 182.498C322.753 182.789 323.346 182.971 323.957 183.032C324.778 183.116 325.598 182.872 326.239 182.353C326.88 181.835 327.289 181.085 327.378 180.266Z" fill="#0891B2"/>
<path d="M292.367 274.76L292.088 273.922C291.916 273.398 291.583 272.941 291.135 272.617C290.688 272.294 290.149 272.119 289.597 272.12H260.651C260.053 272.122 259.473 272.328 259.007 272.703C258.541 273.078 258.217 273.6 258.088 274.184L258.016 274.508C257.894 275.075 257.581 275.583 257.129 275.947C256.677 276.311 256.114 276.509 255.534 276.509C255.152 276.51 254.775 276.425 254.431 276.261C254.087 276.097 253.784 275.857 253.545 275.561C253.306 275.264 253.136 274.917 253.049 274.546C252.962 274.175 252.96 273.79 253.043 273.418L253.115 273.084C253.495 271.371 254.449 269.838 255.819 268.739C257.189 267.639 258.894 267.039 260.651 267.038H289.597C291.223 267.035 292.809 267.545 294.128 268.495C295.447 269.445 296.432 270.786 296.943 272.327L297.223 273.165C297.348 273.548 297.381 273.954 297.319 274.351C297.257 274.749 297.102 275.126 296.866 275.452C296.63 275.778 296.321 276.043 295.962 276.227C295.604 276.411 295.207 276.507 294.804 276.509C294.265 276.513 293.738 276.345 293.3 276.031C292.862 275.717 292.536 275.272 292.367 274.76Z" fill="#263238"/>
<path opacity="0.3" d="M292.367 274.76L292.088 273.922C291.916 273.398 291.583 272.941 291.135 272.617C290.688 272.294 290.149 272.119 289.597 272.12H260.651C260.053 272.122 259.473 272.328 259.007 272.703C258.541 273.078 258.217 273.6 258.088 274.184L258.016 274.508C257.894 275.075 257.581 275.583 257.129 275.947C256.677 276.311 256.114 276.509 255.534 276.509C255.152 276.51 254.775 276.425 254.431 276.261C254.087 276.097 253.784 275.857 253.545 275.561C253.306 275.264 253.136 274.917 253.049 274.546C252.962 274.175 252.96 273.79 253.043 273.418L253.115 273.084C253.495 271.371 254.449 269.838 255.819 268.739C257.189 267.639 258.894 267.039 260.651 267.038H289.597C291.223 267.035 292.809 267.545 294.128 268.495C295.447 269.445 296.432 270.786 296.943 272.327L297.223 273.165C297.348 273.548 297.381 273.954 297.319 274.351C297.257 274.749 297.102 275.126 296.866 275.452C296.63 275.778 296.321 276.043 295.962 276.227C295.604 276.411 295.207 276.507 294.804 276.509C294.265 276.513 293.738 276.345 293.3 276.031C292.862 275.717 292.536 275.272 292.367 274.76Z" fill="white"/>
<path opacity="0.2" d="M279.831 267.038H270.877V272.12H279.831V267.038Z" fill="black"/>
<path d="M275.354 275.932C276.029 275.932 276.676 275.664 277.154 275.188C277.631 274.711 277.899 274.065 277.899 273.391V205.805H272.809V273.391C272.809 274.065 273.077 274.711 273.554 275.188C274.032 275.664 274.679 275.932 275.354 275.932Z" fill="#263238"/>
<path opacity="0.3" d="M275.354 275.932C276.029 275.932 276.676 275.664 277.154 275.188C277.631 274.711 277.899 274.065 277.899 273.391V205.805H272.809V273.391C272.809 274.065 273.077 274.711 273.554 275.188C274.032 275.664 274.679 275.932 275.354 275.932Z" fill="white"/>
<path d="M271.789 280.546C271.789 281.25 271.998 281.938 272.39 282.523C272.782 283.109 273.338 283.565 273.99 283.834C274.641 284.104 275.358 284.174 276.05 284.037C276.741 283.9 277.377 283.561 277.875 283.063C278.374 282.565 278.713 281.931 278.851 281.24C278.988 280.55 278.918 279.834 278.648 279.184C278.378 278.533 277.921 277.977 277.335 277.586C276.749 277.195 276.059 276.986 275.354 276.986C274.412 276.998 273.512 277.377 272.846 278.042C272.18 278.707 271.801 279.605 271.789 280.546Z" fill="#263238"/>
<path d="M293.766 280.546C293.766 281.25 293.975 281.938 294.367 282.523C294.759 283.109 295.316 283.565 295.967 283.834C296.619 284.104 297.335 284.174 298.027 284.037C298.719 283.9 299.354 283.561 299.852 283.063C300.351 282.565 300.691 281.931 300.828 281.24C300.966 280.55 300.895 279.834 300.625 279.184C300.355 278.533 299.898 277.977 299.312 277.586C298.726 277.195 298.037 276.986 297.331 276.986C296.39 276.998 295.49 277.377 294.823 278.042C294.157 278.707 293.778 279.605 293.766 280.546Z" fill="#263238"/>
<path d="M249.424 280.546C249.424 281.25 249.633 281.939 250.025 282.524C250.417 283.11 250.975 283.566 251.626 283.835C252.278 284.104 252.996 284.174 253.688 284.036C254.379 283.898 255.015 283.558 255.513 283.06C256.011 282.561 256.35 281.926 256.486 281.235C256.623 280.544 256.551 279.828 256.28 279.177C256.009 278.527 255.55 277.972 254.963 277.582C254.375 277.192 253.685 276.985 252.98 276.986C252.512 276.986 252.049 277.078 251.617 277.257C251.185 277.436 250.792 277.699 250.462 278.029C250.132 278.36 249.87 278.753 249.692 279.184C249.514 279.616 249.422 280.079 249.424 280.546Z" fill="#263238"/>
<path opacity="0.2" d="M277.899 209.77H272.809V221.791H277.899V209.77Z" fill="black"/>
<path d="M258.837 215.555H292.431C293.798 215.556 295.125 215.09 296.19 214.234C297.256 213.378 297.996 212.185 298.288 210.851L299.29 206.345H251.454L253.142 211.473C253.544 212.663 254.31 213.696 255.332 214.429C256.354 215.161 257.58 215.555 258.837 215.555Z" fill="#263238"/>
<path opacity="0.3" d="M258.837 215.555H292.431C293.798 215.556 295.125 215.09 296.19 214.234C297.256 213.378 297.996 212.185 298.288 210.851L299.29 206.345H251.454L253.142 211.473C253.544 212.663 254.31 213.696 255.332 214.429C256.354 215.161 257.58 215.555 258.837 215.555Z" fill="white"/>
<path d="M298.433 209.878H246.174C245.382 209.878 244.622 209.564 244.062 209.004C243.501 208.445 243.187 207.686 243.187 206.895V206.21C243.187 205.015 243.662 203.869 244.509 203.024C245.355 202.179 246.503 201.704 247.7 201.704H296.934C298.131 201.704 299.279 202.179 300.125 203.024C300.972 203.869 301.447 205.015 301.447 206.21V206.895C301.447 207.289 301.369 207.679 301.217 208.043C301.065 208.406 300.843 208.736 300.563 209.014C300.282 209.291 299.95 209.51 299.584 209.659C299.219 209.807 298.827 209.881 298.433 209.878Z" fill="#0891B2"/>
<path opacity="0.3" d="M298.433 209.878H246.174C245.382 209.878 244.622 209.564 244.062 209.004C243.501 208.445 243.187 207.686 243.187 206.895V206.21C243.187 205.015 243.662 203.869 244.509 203.024C245.355 202.179 246.503 201.704 247.7 201.704H296.934C298.131 201.704 299.279 202.179 300.125 203.024C300.972 203.869 301.447 205.015 301.447 206.21V206.895C301.447 207.289 301.369 207.679 301.217 208.043C301.065 208.406 300.843 208.736 300.563 209.014C300.282 209.291 299.95 209.51 299.584 209.659C299.219 209.807 298.827 209.881 298.433 209.878Z" fill="black"/>
<path d="M308.614 209.878H276.717C275.925 209.878 275.165 209.563 274.605 209.004C274.044 208.445 273.73 207.686 273.73 206.895V206.21C273.73 205.015 274.205 203.869 275.051 203.024C275.898 202.179 277.045 201.704 278.242 201.704H307.124C308.321 201.704 309.469 202.179 310.315 203.024C311.162 203.869 311.637 205.015 311.637 206.21V206.895C311.637 207.29 311.559 207.681 311.406 208.045C311.254 208.409 311.031 208.739 310.749 209.017C310.468 209.294 310.135 209.513 309.768 209.661C309.401 209.809 309.009 209.882 308.614 209.878Z" fill="#0891B2"/>
<path d="M225.623 260.369L222.617 274.832L216.218 273.967L217.536 258.972L225.623 260.369Z" fill="#FF8B7B"/>
<path d="M215.776 273.237L223.547 273.778C223.678 273.785 223.801 273.843 223.89 273.938C223.979 274.034 224.028 274.161 224.025 274.292L223.971 280.537C223.953 280.86 223.806 281.163 223.564 281.38C223.323 281.596 223.005 281.707 222.681 281.69C219.973 281.456 218.691 281.204 215.271 280.942C212.224 280.843 209.189 280.518 206.191 279.969C203.312 279.302 204.079 276.491 205.342 276.518C208.621 276.335 211.794 275.301 214.549 273.517C214.915 273.29 215.347 273.192 215.776 273.237Z" fill="#263238"/>
<path d="M211.967 273.814C211.867 273.689 211.801 273.54 211.777 273.382C211.753 273.223 211.772 273.061 211.832 272.913C211.855 272.812 211.904 272.718 211.973 272.641C212.043 272.564 212.131 272.505 212.229 272.471C213.132 272.201 214.937 273.688 215.189 273.859C215.226 273.912 215.242 273.976 215.235 274.039C215.226 274.07 215.209 274.097 215.184 274.118C215.16 274.139 215.131 274.152 215.099 274.156C214.486 274.263 213.862 274.302 213.24 274.274C212.774 274.279 212.322 274.116 211.967 273.814ZM212.328 272.796C212.28 272.813 212.237 272.842 212.202 272.879C212.168 272.917 212.143 272.963 212.13 273.012C212.09 273.109 212.075 273.215 212.088 273.319C212.101 273.423 212.14 273.522 212.202 273.607C212.509 273.949 213.411 274.048 214.666 273.895C213.899 273.318 212.789 272.651 212.328 272.796Z" fill="#263238"/>
<path d="M214.973 274.121C214.323 273.661 213.393 272.129 213.592 271.372C213.631 271.239 213.714 271.123 213.827 271.041C213.939 270.96 214.075 270.918 214.214 270.921C214.34 270.917 214.465 270.939 214.582 270.985C214.698 271.032 214.804 271.102 214.891 271.192C215.532 271.931 215.234 273.949 215.234 274.021C215.218 274.072 215.182 274.114 215.135 274.139C215.125 274.143 215.114 274.145 215.104 274.145C215.093 274.145 215.082 274.143 215.072 274.139C215.055 274.143 215.037 274.143 215.02 274.14C215.003 274.137 214.987 274.13 214.973 274.121ZM214.233 271.282C213.998 271.282 213.908 271.399 213.908 271.498C213.97 272.332 214.336 273.114 214.937 273.697C215.081 272.937 214.977 272.15 214.639 271.453C214.598 271.403 214.547 271.362 214.49 271.333C214.432 271.303 214.369 271.286 214.305 271.282H214.233Z" fill="#263238"/>
<path opacity="0.2" d="M217.536 258.972L225.623 260.369L224.107 267.677L216.841 266.92L217.536 258.972Z" fill="black"/>
<path d="M279.506 165.586C279.506 165.586 278.676 179.103 275.065 179.725C271.455 180.347 225.506 189.692 222.193 200.505C218.881 211.319 216.155 265.244 216.155 265.244L225.352 266.073C225.352 266.073 237.988 220.331 237.383 208.165C237.383 208.165 277.547 208.165 290.941 200.803C304.336 193.44 297.891 167.172 297.891 167.172L279.506 165.586Z" fill="#263238"/>
<path opacity="0.5" d="M279.506 165.586C279.506 165.586 278.676 179.103 275.065 179.725C271.455 180.347 225.506 189.692 222.193 200.505C218.881 211.319 216.155 265.244 216.155 265.244L225.352 266.073C225.352 266.073 237.988 220.331 237.383 208.165C237.383 208.165 277.547 208.165 290.941 200.803C304.336 193.44 297.891 167.172 297.891 167.172L279.506 165.586Z" fill="white"/>
<path opacity="0.2" d="M238.521 208.174C240.208 208.174 243.647 208.102 248.043 207.922L253.819 203.416L287.665 196.603L288.947 185.727C288.947 185.727 255.624 188.043 246.689 192.999C239.992 196.757 238.728 204.516 238.521 208.174Z" fill="black"/>
<path d="M247.167 263.208L244.18 277.896L237.753 277.257L239.035 262.09L247.167 263.208Z" fill="#FF8B7B"/>
<path d="M237.194 275.364L244.929 276.211C244.993 276.213 245.057 276.228 245.115 276.256C245.173 276.283 245.226 276.322 245.269 276.37C245.312 276.418 245.344 276.474 245.365 276.535C245.386 276.596 245.394 276.66 245.389 276.725L245.109 282.979C245.088 283.302 244.94 283.604 244.696 283.819C244.453 284.033 244.134 284.143 243.81 284.123C241.102 283.79 239.865 283.483 236.427 283.087C233.392 282.885 230.376 282.467 227.401 281.834C224.594 281.059 225.424 278.275 226.679 278.347C229.657 278.518 233.899 277.013 236.02 275.643C236.371 275.427 236.783 275.329 237.194 275.364Z" fill="#263238"/>
<path d="M233.412 275.833C233.302 275.7 233.233 275.539 233.212 275.368C233.191 275.197 233.22 275.024 233.295 274.869C233.325 274.77 233.379 274.68 233.451 274.607C233.523 274.533 233.612 274.478 233.71 274.445C234.612 274.247 236.418 275.77 236.607 275.95C236.623 275.977 236.631 276.008 236.631 276.04C236.631 276.072 236.623 276.103 236.607 276.13C236.601 276.16 236.583 276.187 236.558 276.205C236.533 276.224 236.503 276.232 236.472 276.229C235.853 276.318 235.227 276.339 234.603 276.292C234.166 276.278 233.746 276.116 233.412 275.833ZM233.746 274.805C233.697 274.816 233.653 274.841 233.618 274.876C233.583 274.911 233.558 274.955 233.547 275.004C233.503 275.1 233.486 275.206 233.499 275.311C233.511 275.416 233.553 275.516 233.62 275.598C233.899 275.959 234.811 276.094 236.075 275.986C235.316 275.382 234.27 274.661 233.764 274.805H233.746Z" fill="#263238"/>
<path d="M236.382 276.202C235.723 275.751 234.847 274.174 235.082 273.435C235.123 273.301 235.209 273.184 235.325 273.106C235.442 273.027 235.582 272.991 235.723 273.003C235.848 272.998 235.973 273.023 236.087 273.074C236.201 273.126 236.302 273.203 236.382 273.3C237.004 274.057 236.607 276.076 236.616 276.139C236.609 276.164 236.597 276.188 236.58 276.208C236.563 276.229 236.541 276.245 236.517 276.256C236.509 276.26 236.499 276.262 236.49 276.262C236.481 276.262 236.471 276.26 236.463 276.256C236.446 276.253 236.43 276.247 236.416 276.238C236.402 276.228 236.39 276.216 236.382 276.202ZM235.723 273.408C235.497 273.408 235.38 273.516 235.389 273.616C235.433 274.454 235.776 275.25 236.355 275.859C236.519 275.101 236.443 274.311 236.138 273.598C236.054 273.495 235.935 273.428 235.804 273.408H235.723Z" fill="#263238"/>
<path opacity="0.2" d="M247.041 263.784L245.867 269.569L238.521 268.218L239.035 262.108L247.041 263.784Z" fill="black"/>
<path d="M293.451 122.773C286.113 121.808 291.817 119.366 291.817 119.366C296.799 118.465 297.097 114.861 296.655 111.463L305.78 104.804C304.408 109.084 302.612 116.951 305.301 119.97C305.301 119.97 307.152 123.863 295.716 122.998L293.451 122.773Z" fill="#FF8B7B"/>
<path opacity="0.2" d="M302.061 107.516L296.646 111.454C296.759 112.251 296.801 113.056 296.772 113.86C298.658 113.671 301.438 111.77 301.863 109.85C302.07 109.091 302.138 108.3 302.061 107.516Z" fill="black"/>
<path d="M309.877 96.2786C308.244 103.208 307.702 106.191 303.559 109.345C297.323 114.121 289.182 111.085 288.712 103.938C288.297 97.4952 291.032 87.2401 298.352 85.2486C299.907 84.7727 301.562 84.72 303.145 85.0958C304.728 85.4716 306.182 86.2624 307.356 87.3865C308.531 88.5107 309.384 89.9274 309.827 91.4906C310.27 93.0537 310.288 94.7066 309.877 96.2786Z" fill="#FF8B7B"/>
<path d="M298.749 96.9456C298.631 97.5314 298.234 97.9729 297.846 97.9279C297.458 97.8828 297.259 97.3692 297.368 96.7834C297.476 96.1977 297.873 95.7471 298.27 95.7922C298.667 95.8372 298.839 96.3509 298.749 96.9456Z" fill="#263238"/>
<path d="M291.591 96.1974C291.483 96.7832 291.086 97.2247 290.689 97.1797C290.292 97.1346 290.093 96.621 290.201 96.0352C290.31 95.4495 290.716 95.0079 291.104 95.053C291.492 95.098 291.7 95.6117 291.591 96.1974Z" fill="#263238"/>
<path d="M291.266 95.0709L289.958 94.4941C289.958 94.4941 290.463 95.7197 291.266 95.0709Z" fill="#263238"/>
<path d="M293.397 97.396C292.62 98.6783 291.686 99.8589 290.617 100.91C290.878 101.159 291.192 101.346 291.537 101.455C291.881 101.564 292.245 101.594 292.602 101.541L293.397 97.396Z" fill="#FF5652"/>
<path d="M295.518 104.083C295.19 104.114 294.861 104.114 294.534 104.083C294.512 104.079 294.492 104.072 294.473 104.06C294.455 104.049 294.439 104.034 294.426 104.017C294.413 103.999 294.404 103.979 294.4 103.958C294.395 103.937 294.394 103.915 294.398 103.893C294.401 103.87 294.407 103.847 294.419 103.827C294.43 103.806 294.446 103.788 294.464 103.774C294.483 103.759 294.504 103.749 294.527 103.743C294.55 103.737 294.574 103.736 294.597 103.74C295.338 103.829 296.09 103.752 296.798 103.513C297.505 103.274 298.15 102.881 298.686 102.361C298.698 102.338 298.715 102.319 298.737 102.303C298.758 102.288 298.783 102.278 298.808 102.274C298.834 102.27 298.861 102.271 298.886 102.279C298.911 102.286 298.934 102.299 298.953 102.317C298.972 102.335 298.987 102.357 298.996 102.381C299.006 102.405 299.01 102.432 299.007 102.458C299.005 102.484 298.997 102.509 298.983 102.531C298.97 102.554 298.951 102.573 298.929 102.587C298.014 103.486 296.8 104.018 295.518 104.083Z" fill="#263238"/>
<path d="M300.87 93.8545C300.777 93.8475 300.689 93.8057 300.626 93.7374C300.365 93.4048 300.026 93.1418 299.638 92.972C299.251 92.8022 298.827 92.7308 298.406 92.7641C298.362 92.7718 298.316 92.7702 298.273 92.7596C298.229 92.7491 298.189 92.7296 298.153 92.7025C298.117 92.6755 298.088 92.6414 298.066 92.6023C298.044 92.5633 298.031 92.5202 298.027 92.4757C298.021 92.3824 298.05 92.2902 298.108 92.2169C298.167 92.1437 298.25 92.0947 298.342 92.0792C298.877 92.0236 299.417 92.1034 299.912 92.3113C300.408 92.5192 300.842 92.8485 301.177 93.2688C301.232 93.3435 301.257 93.4369 301.245 93.5293C301.233 93.6217 301.186 93.7059 301.113 93.7644C301.046 93.8229 300.959 93.8549 300.87 93.8545Z" fill="#263238"/>
<path d="M290.138 92.728C290.095 92.7299 290.052 92.7228 290.011 92.7073C289.971 92.6918 289.934 92.6682 289.903 92.6379C289.87 92.6068 289.844 92.5691 289.825 92.5272C289.807 92.4854 289.798 92.4402 289.798 92.3946C289.798 92.349 289.807 92.3039 289.825 92.262C289.844 92.2202 289.87 92.1825 289.903 92.1513C290.282 91.7348 290.752 91.4108 291.276 91.2046C291.801 90.9983 292.365 90.9152 292.927 90.9618C292.971 90.9692 293.013 90.9856 293.05 91.0099C293.088 91.0342 293.12 91.066 293.144 91.1032C293.169 91.1404 293.186 91.1822 293.193 91.2261C293.201 91.27 293.199 91.315 293.189 91.3583C293.167 91.4507 293.112 91.5316 293.033 91.5851C292.954 91.6385 292.859 91.6605 292.765 91.6467C292.32 91.6175 291.875 91.6891 291.463 91.8561C291.05 92.0231 290.68 92.2811 290.382 92.6109C290.318 92.6793 290.231 92.7211 290.138 92.728Z" fill="#263238"/>
<path d="M298.406 95.846L297.097 95.2783C297.097 95.2783 297.594 96.4678 298.406 95.846Z" fill="#263238"/>
<path d="M249.83 154.385H250.227C250.994 154.331 252.032 154.304 252.862 154.204C253.693 154.105 254.667 153.988 255.489 153.826C257.051 153.563 258.569 153.087 260.002 152.411C260.597 152.127 261.16 151.78 261.68 151.375C261.91 151.191 262.13 150.996 262.339 150.789C262.448 150.693 262.547 150.587 262.637 150.474L262.998 150.095L264.803 148.122L266.608 146.13C268.946 143.427 271.121 140.66 273.26 137.84C274.316 136.425 275.336 134.992 276.338 133.559C276.834 132.838 277.322 132.117 277.791 131.396C278.26 130.675 278.757 129.918 279.127 129.306L279.19 129.198C279.931 128.125 281.024 127.345 282.28 126.992C283.536 126.64 284.876 126.738 286.068 127.269C288.64 128.377 289.678 131.081 288.414 133.307C287.873 134.208 287.422 135.028 286.889 135.848C286.356 136.668 285.842 137.443 285.291 138.227C284.226 139.804 283.08 141.336 281.898 142.832C279.51 145.861 276.951 148.752 274.235 151.492C272.872 152.88 271.437 154.195 269.993 155.538C269.84 155.682 269.578 155.899 269.316 156.115C269.063 156.331 268.798 156.533 268.522 156.719C267.983 157.108 267.415 157.457 266.825 157.764C265.676 158.375 264.466 158.864 263.215 159.224C260.846 159.864 258.39 160.12 255.94 159.981C253.638 159.852 251.361 159.437 249.162 158.746C248.728 158.62 248.34 158.37 248.045 158.028C247.751 157.685 247.561 157.265 247.501 156.818C247.491 156.505 247.544 156.193 247.657 155.9C247.769 155.608 247.938 155.341 248.155 155.114C248.372 154.888 248.631 154.707 248.919 154.581C249.206 154.456 249.516 154.389 249.83 154.385Z" fill="#FF8B7B"/>
<path d="M282.503 123.313C282.503 123.313 280.418 123.313 272.574 136.74C272.574 136.74 275.797 144.598 284.181 145.004C284.145 145.004 300.554 122.412 282.503 123.313Z" fill="#263238"/>
<path opacity="0.5" d="M280.192 127.512L284.542 126.476L289.651 129.18L290.671 131.721C289.353 137.822 284.145 144.995 284.145 144.995C280.899 144.847 277.835 143.456 275.589 141.111C277.495 136.712 279.034 132.164 280.192 127.512Z" fill="black"/>
<path d="M241.95 153.015L244.333 151.852C244.786 151.636 245.279 151.516 245.781 151.5C246.283 151.485 246.783 151.574 247.249 151.762L251.59 153.565C252.409 153.871 253.139 154.374 253.717 155.03C254.294 155.685 254.702 156.473 254.902 157.322L255.11 158.341C251.31 160.503 245.362 160.404 245.362 160.404L243.665 160.539C243.005 160.646 242.329 160.493 241.779 160.114C241.229 159.734 240.848 159.157 240.714 158.503L240.362 155.583C240.327 155.043 240.461 154.506 240.746 154.046C241.03 153.586 241.451 153.225 241.95 153.015Z" fill="#FF8B7B"/>
<path d="M287.701 165.586C287.701 165.586 288.676 186.312 285.057 186.934C281.438 187.556 248.133 190.593 244.83 201.407C241.526 212.22 237.889 266.145 237.889 266.145L247.086 267.875C247.086 267.875 261.527 220.331 260.922 208.165C260.922 208.165 297.575 209.247 305.446 201.704C313.316 194.161 311.502 167.163 311.502 167.163L287.701 165.586Z" fill="#263238"/>
<path opacity="0.5" d="M287.701 165.586C287.701 165.586 288.676 186.312 285.057 186.934C281.438 187.556 248.133 190.593 244.83 201.407C241.526 212.22 237.889 266.145 237.889 266.145L247.086 267.875C247.086 267.875 261.527 220.331 260.922 208.165C260.922 208.165 297.575 209.247 305.446 201.704C313.316 194.161 311.502 167.163 311.502 167.163L287.701 165.586Z" fill="white"/>
<path d="M293.532 119.24C293.288 119.402 287.476 123.169 295.057 123.169C302.639 123.169 305.067 119.889 305.067 119.807C307.774 120.204 310.825 120.79 314.192 121.61L311.719 172.372C311.719 172.372 290.409 174.3 278.504 168.929C278.504 168.929 276.979 131.576 280.517 125.674C280.553 125.71 282.313 120.114 293.532 119.24Z" fill="#263238"/>
<path opacity="0.5" d="M313.74 130.982L312.702 150.726C308.46 136.677 308.596 129.423 308.596 129.423L309.724 126.773L313.74 130.982Z" fill="black"/>
<path d="M338.461 134.271C338.033 134.194 337.592 134.245 337.193 134.416C336.793 134.588 336.453 134.873 336.214 135.235V135.28C335.149 136.83 334.084 138.443 332.974 139.966C331.864 141.489 330.781 143.03 329.634 144.472C328.894 145.373 328.127 146.274 327.369 147.094C327.249 147.215 327.101 147.306 326.939 147.358C326.776 147.411 326.604 147.424 326.435 147.397C326.267 147.37 326.107 147.303 325.97 147.201C325.832 147.1 325.721 146.968 325.645 146.815C324.472 144.364 323.38 141.85 322.342 139.29C321.602 137.416 320.862 135.533 320.167 133.622C319.472 131.712 318.786 129.765 318.163 127.954V127.855C317.963 127.274 317.646 126.74 317.232 126.286C316.818 125.832 316.316 125.467 315.755 125.214C315.195 124.96 314.588 124.824 313.973 124.814C313.358 124.803 312.748 124.918 312.179 125.151C311.14 125.602 310.305 126.42 309.832 127.447C309.359 128.475 309.282 129.64 309.616 130.721C310.238 132.847 310.942 134.776 311.673 136.767C312.404 138.759 313.19 140.804 314.092 142.832C314.995 144.86 315.943 146.761 316.971 148.698C318 150.636 319.129 152.528 320.329 154.403L320.482 154.637C320.588 154.801 320.712 154.952 320.852 155.088C321.319 155.564 321.854 155.968 322.441 156.286C323.116 156.648 323.855 156.874 324.616 156.953C325.83 157.067 327.051 156.832 328.136 156.277C329.405 155.605 330.539 154.707 331.485 153.628C332.916 151.983 334.175 150.195 335.239 148.293C336.259 146.491 337.162 144.688 337.992 142.886C338.823 141.084 339.554 139.218 340.212 137.281C340.325 136.969 340.369 136.636 340.339 136.305C340.309 135.975 340.207 135.655 340.04 135.368C339.873 135.081 339.646 134.834 339.373 134.645C339.1 134.455 338.789 134.328 338.461 134.271Z" fill="#FF8B7B"/>
<path d="M326.647 139.525C322.929 143.178 317.919 145.224 312.702 145.22C312.702 145.22 303.587 123.7 311.529 121.466C319.047 119.339 326.647 139.525 326.647 139.525Z" fill="#263238"/>
<path d="M337.026 127.683L335.275 129.315C334.941 129.607 334.684 129.977 334.526 130.391C334.369 130.806 334.316 131.253 334.373 131.694L334.896 135.839C335.001 136.659 335.301 137.441 335.773 138.12C336.244 138.799 336.872 139.355 337.604 139.741L338.507 140.227C341.593 137.758 343.101 132.811 343.101 132.811L343.696 131.45C343.824 131.173 343.895 130.874 343.906 130.57C343.917 130.265 343.868 129.962 343.762 129.676C343.655 129.391 343.493 129.129 343.286 128.906C343.078 128.683 342.828 128.504 342.55 128.377L339.842 127.188C339.373 127 338.861 126.947 338.364 127.034C337.866 127.122 337.403 127.347 337.026 127.683Z" fill="#FF8B7B"/>
<path d="M294.615 180.68L243.557 185.457C243.206 185.512 242.889 185.7 242.672 185.98C242.454 186.261 242.351 186.613 242.384 186.967C242.418 187.32 242.585 187.648 242.851 187.883C243.117 188.118 243.463 188.243 243.819 188.232L294.877 183.447C295.059 183.43 295.235 183.377 295.397 183.292C295.559 183.206 295.702 183.09 295.818 182.949C295.935 182.809 296.022 182.647 296.076 182.472C296.13 182.298 296.149 182.115 296.131 181.933C296.114 181.751 296.061 181.575 295.976 181.414C295.89 181.252 295.774 181.11 295.633 180.993C295.492 180.877 295.33 180.789 295.155 180.736C294.981 180.682 294.797 180.663 294.615 180.68Z" fill="#0891B2"/>
<path d="M244.496 187.34L268.062 185.123C268.163 185.113 268.261 185.079 268.347 185.024C268.433 184.969 268.505 184.895 268.556 184.807C268.608 184.719 268.639 184.62 268.645 184.519C268.652 184.417 268.634 184.315 268.594 184.222L256.536 157.98C256.375 157.627 256.108 157.332 255.771 157.138C255.435 156.944 255.045 156.86 254.658 156.899L231.056 159.052C230.956 159.064 230.859 159.099 230.774 159.155C230.689 159.21 230.618 159.284 230.567 159.371C230.515 159.459 230.485 159.557 230.477 159.658C230.47 159.759 230.486 159.86 230.524 159.954L242.582 186.204C242.739 186.572 243.009 186.88 243.353 187.084C243.697 187.288 244.097 187.377 244.496 187.34Z" fill="#0891B2"/>
<path d="M243.692 187.421L267.258 185.186C267.36 185.176 267.457 185.141 267.544 185.087C267.63 185.032 267.702 184.958 267.754 184.871C267.807 184.783 267.838 184.685 267.846 184.583C267.854 184.482 267.838 184.38 267.8 184.285L255.733 158.035C255.57 157.683 255.302 157.39 254.966 157.196C254.63 157.002 254.242 156.918 253.855 156.953L230.244 159.17C230.143 159.18 230.045 159.214 229.959 159.269C229.873 159.324 229.801 159.398 229.749 159.486C229.697 159.574 229.667 159.672 229.661 159.774C229.654 159.876 229.672 159.978 229.712 160.071L241.779 186.313C241.938 186.677 242.21 186.981 242.554 187.18C242.898 187.379 243.297 187.464 243.692 187.421Z" fill="#0891B2"/>
<path opacity="0.7" d="M243.692 187.421L267.258 185.186C267.36 185.176 267.457 185.141 267.544 185.087C267.63 185.032 267.702 184.958 267.754 184.871C267.807 184.783 267.838 184.685 267.846 184.583C267.854 184.482 267.838 184.38 267.8 184.285L255.733 158.035C255.57 157.683 255.302 157.39 254.966 157.196C254.63 157.002 254.242 156.918 253.855 156.953L230.244 159.17C230.143 159.18 230.045 159.214 229.959 159.269C229.873 159.324 229.801 159.398 229.749 159.486C229.697 159.574 229.667 159.672 229.661 159.774C229.654 159.876 229.672 159.978 229.712 160.071L241.779 186.313C241.938 186.677 242.21 186.981 242.554 187.18C242.898 187.379 243.297 187.464 243.692 187.421Z" fill="white"/>
<path opacity="0.7" d="M270.408 185.763C270.226 185.78 270.043 185.761 269.868 185.708C269.693 185.654 269.531 185.567 269.39 185.45C269.106 185.215 268.927 184.877 268.892 184.51C268.857 184.143 268.97 183.778 269.205 183.494C269.44 183.21 269.779 183.031 270.146 182.996L294.615 180.68C294.797 180.663 294.98 180.682 295.155 180.736C295.33 180.789 295.492 180.877 295.633 180.993C295.774 181.11 295.89 181.252 295.976 181.414C296.061 181.575 296.114 181.751 296.131 181.933C296.148 182.115 296.13 182.298 296.076 182.472C296.022 182.647 295.935 182.809 295.818 182.949C295.702 183.09 295.558 183.206 295.397 183.292C295.235 183.377 295.059 183.43 294.877 183.447L270.408 185.763Z" fill="white"/>
<path opacity="0.5" d="M274.463 184.314L276.44 184.128L276.379 183.482L274.402 183.668L274.463 184.314Z" fill="black"/>
<path opacity="0.5" d="M271.408 184.6L273.385 184.415L273.325 183.769L271.348 183.954L271.408 184.6Z" fill="black"/>
<path d="M307.711 101.559C306.225 100.28 305.187 98.5604 304.749 96.6507C304.31 94.7411 304.494 92.7416 305.274 90.9438C303.422 90.1091 301.421 89.6526 299.39 89.6011C294.877 89.6011 289.714 90.5653 291.095 87.1139C291.095 87.1139 286.302 81.0312 294.462 80.1661C294.462 80.1661 294.046 72.4973 300.635 77.4626C300.635 77.4626 306.114 70.9653 308.839 79.7696C308.839 79.7696 317.08 75.4711 314.932 86.0776C314.932 86.0776 320.762 86.1767 317.08 92.9624C317.08 92.9624 320.131 97.0987 314.074 100.73C314.074 100.73 314.562 106.633 310.148 105.569C310.148 105.569 305.085 112.662 304.39 109.354C303.758 106.281 307.711 101.559 307.711 101.559Z" fill="#263238"/>
<path d="M310.257 103.046C309.94 103.651 309.502 104.183 308.969 104.609C308.436 105.036 307.82 105.347 307.161 105.524C305.509 105.876 304.886 103.983 305.509 102.145C306.078 100.487 307.612 98.3061 309.191 98.7837C310.771 99.2613 311.15 101.442 310.257 103.046Z" fill="#FF8B7B"/>
<path d="M306.727 104.804L305.012 107.931H308.921L307.197 104.804H306.727Z" fill="#0891B2"/>
<path opacity="0.2" d="M306.727 104.804L305.012 107.931H308.921L307.197 104.804H306.727Z" fill="black"/>
<path d="M305.012 107.931L306.727 104.804L308.451 107.931H305.012Z" fill="#0891B2"/>
<path d="M215.55 265.659L225.605 266.713L226.399 263.856L215.55 262.658V265.659Z" fill="#263238"/>
<path d="M237.383 266.713L247.357 268.407L248.322 265.614L237.573 263.721L237.383 266.713Z" fill="#263238"/>
<path d="M226.841 116.005C209.539 116.005 194.232 101.947 192.716 84.6811C191.199 67.4151 204.052 53.3481 221.345 53.3481C238.638 53.3481 253.954 67.4061 255.471 84.6811C256.987 101.956 244.135 116.005 226.841 116.005Z" fill="#263238"/>
<path d="M228.349 115.248C211.047 115.248 195.739 101.199 194.223 83.9241C192.707 66.649 205.559 52.6001 222.861 52.6001C240.163 52.6001 255.462 66.649 256.978 83.9241C258.494 101.199 245.651 115.248 228.349 115.248Z" fill="#0891B2"/>
<g opacity="0.7">
<path d="M228.349 115.248C211.047 115.248 195.739 101.199 194.223 83.9241C192.707 66.649 205.559 52.6001 222.861 52.6001C240.163 52.6001 255.462 66.649 256.978 83.9241C258.494 101.199 245.651 115.248 228.349 115.248Z" fill="white"/>
</g>
<path d="M228.349 115.248C211.047 115.248 195.739 101.199 194.223 83.9241C192.707 66.649 205.559 52.6001 222.861 52.6001C240.163 52.6001 255.462 66.649 256.978 83.9241C258.494 101.199 245.651 115.248 228.349 115.248ZM223.385 58.6198C209.413 58.6198 199.015 69.9743 200.261 83.9241C201.507 97.8739 213.845 109.219 227.816 109.219C241.788 109.219 252.185 97.8739 250.94 83.9241C249.694 69.9743 237.374 58.6198 223.385 58.6198Z" fill="#0891B2"/>
<path d="M227.338 103.767C221.933 103.663 216.753 101.59 212.772 97.9386C208.791 94.2875 206.284 89.3099 205.721 83.9421C205.45 81.4173 205.719 78.8637 206.511 76.4506C207.303 74.0375 208.6 71.8201 210.315 69.9454C212.031 68.0707 214.126 66.5815 216.461 65.5767C218.797 64.5718 221.32 64.0742 223.863 64.1168C229.276 64.2087 234.468 66.2761 238.459 69.9286C242.45 73.5811 244.963 78.5659 245.525 83.9421C245.797 86.4707 245.526 89.0282 244.732 91.4445C243.937 93.8608 242.636 96.0805 240.916 97.9559C239.196 99.8314 237.095 101.32 234.754 102.322C232.413 103.324 229.885 103.816 227.338 103.767ZM224.387 70.1004C222.614 70.0695 220.854 70.4158 219.226 71.1163C217.597 71.8167 216.137 72.8553 214.942 74.163C213.746 75.4707 212.844 77.0174 212.293 78.7004C211.743 80.3834 211.558 82.1641 211.751 83.9241C212.13 87.6729 213.872 91.1529 216.648 93.7053C219.424 96.2578 223.041 97.7056 226.814 97.7747C228.586 97.8055 230.345 97.4594 231.973 96.7595C233.6 96.0595 235.06 95.0218 236.255 93.7151C237.451 92.4085 238.354 90.8628 238.904 89.1809C239.455 87.499 239.641 85.7193 239.45 83.9601C239.073 80.2096 237.332 76.7275 234.555 74.1732C231.779 71.6189 228.161 70.1698 224.387 70.1004Z" fill="#0891B2"/>
<path d="M233.448 83.9241C233.559 84.9217 233.455 85.9314 233.144 86.8858C232.833 87.8403 232.322 88.7177 231.645 89.4595C230.967 90.2013 230.14 90.7905 229.217 91.1879C228.293 91.5852 227.296 91.7817 226.291 91.7641C224.154 91.7265 222.104 90.9078 220.531 89.463C218.957 88.0182 217.969 86.0475 217.753 83.9241C217.644 82.926 217.749 81.9161 218.061 80.9616C218.373 80.0072 218.885 79.13 219.563 78.3884C220.241 77.6468 221.069 77.0577 221.992 76.6604C222.916 76.2631 223.914 76.0666 224.919 76.0841C227.055 76.1238 229.102 76.9435 230.674 78.3881C232.245 79.8327 233.232 81.8021 233.448 83.9241Z" fill="#0891B2"/>
<path d="M247.619 62.0171L246.084 56.0605L252.312 49.8516L253.837 55.8081L247.619 62.0171Z" fill="#263238"/>
<path d="M247.618 62.017L253.584 63.549L259.803 57.3401L253.837 55.8081L247.618 62.017Z" fill="#263238"/>
<path d="M250.881 59.9597L249.681 58.7617L224.14 84.2628L225.34 85.4608L250.881 59.9597Z" fill="#263238"/>
</svg>
