<svg width="327" height="302" viewBox="0 0 327 302" fill="none" xmlns="http://www.w3.org/2000/svg">
<g clip-path="url(#clip0_211_15030)">
<path d="M163 301.112C248.666 301.112 318.112 297.057 318.112 292.056C318.112 287.055 248.666 283 163 283C77.3339 283 7.88794 287.055 7.88794 292.056C7.88794 297.057 77.3339 301.112 163 301.112Z" fill="#F5F5F5"/>
<path d="M271.272 10.4399C251.592 -4.33613 222.472 -0.432129 199.16 7.47187C175.639 15.5565 155.911 32.0048 143.728 53.6879C136.728 66.2719 132.28 80.5839 122.432 91.0959C107.304 107.248 80.1121 110.296 61.8161 97.8159C52.2161 91.3039 43.0481 80.6719 31.6961 82.9039C25.2961 84.1679 20.2721 89.6319 17.9281 95.7519C15.5841 101.872 15.4481 108.6 15.6641 115.152C16.2401 133.048 19.1681 151.056 26.2801 167.488C33.3921 183.92 44.8961 198.744 60.2161 208.016C78.3681 219.008 101.016 221.528 121.704 216.816C142.392 212.104 161.128 200.432 176.16 185.448C188.008 173.624 197.656 159.784 208.96 147.44C220.264 135.096 233.808 123.944 250.024 119.768C261.536 116.808 273.664 117.536 285.408 115.688C297.152 113.84 309.488 108.488 314.544 97.7039C318.944 88.3279 316.76 77.2239 313.312 67.4479C304.84 43.3759 291.664 25.7439 271.272 10.4399Z" fill="#1D4ED8"/>
<path opacity="0.8" d="M271.272 10.4399C251.592 -4.33613 222.472 -0.432129 199.16 7.47187C175.639 15.5565 155.911 32.0048 143.728 53.6879C136.728 66.2719 132.28 80.5839 122.432 91.0959C107.304 107.248 80.1121 110.296 61.8161 97.8159C52.2161 91.3039 43.0481 80.6719 31.6961 82.9039C25.2961 84.1679 20.2721 89.6319 17.9281 95.7519C15.5841 101.872 15.4481 108.6 15.6641 115.152C16.2401 133.048 19.1681 151.056 26.2801 167.488C33.3921 183.92 44.8961 198.744 60.2161 208.016C78.3681 219.008 101.016 221.528 121.704 216.816C142.392 212.104 161.128 200.432 176.16 185.448C188.008 173.624 197.656 159.784 208.96 147.44C220.264 135.096 233.808 123.944 250.024 119.768C261.536 116.808 273.664 117.536 285.408 115.688C297.152 113.84 309.488 108.488 314.544 97.7039C318.944 88.3279 316.76 77.2239 313.312 67.4479C304.84 43.3759 291.664 25.7439 271.272 10.4399Z" fill="white"/>
<path d="M326.344 182.496H0.248047V186.6H326.344V182.496Z" fill="#1D4ED8"/>
<path d="M19.6721 185.44V283.312H22.2161L25.4161 185.44H19.6721Z" fill="#1D4ED8"/>
<path d="M49.7041 188.64V279.312H52.2481L55.4481 188.64H49.7041Z" fill="#1D4ED8"/>
<path opacity="0.5" d="M49.7041 188.64V279.312H52.2481L55.4481 188.64H49.7041Z" fill="black"/>
<path d="M308.08 185.44V283.312H305.544L302.336 185.44H308.08Z" fill="#1D4ED8"/>
<path d="M278.048 188.64V279.312H275.504L272.304 188.64H278.048Z" fill="#1D4ED8"/>
<path opacity="0.5" d="M278.048 188.64V279.312H275.504L272.304 188.64H278.048Z" fill="black"/>
<path d="M313.88 190.992H13.672L7.03198 186.6H320.52L313.88 190.992Z" fill="#1D4ED8"/>
<path opacity="0.5" d="M313.88 190.992H13.672L7.03198 186.6H320.52L313.88 190.992Z" fill="black"/>
<path d="M21.6799 169.912V173.112C21.6799 173.643 21.8898 174.152 22.2639 174.528L24.7999 177.064C25.0246 177.287 25.2986 177.454 25.5999 177.552C26.1228 178.677 26.9563 179.63 28.0022 180.297C29.0482 180.965 30.2631 181.32 31.5039 181.32H32.4559C33.3168 181.325 34.1701 181.16 34.9665 180.833C35.7628 180.506 36.4864 180.024 37.0951 179.415C37.7038 178.806 38.1856 178.083 38.5126 177.287C38.8396 176.49 39.0052 175.637 38.9999 174.776V167.312H25.0159V167.92H23.6799C23.1509 167.92 22.6434 168.13 22.2685 168.503C21.8937 168.876 21.682 169.383 21.6799 169.912ZM23.2799 169.912C23.2799 169.86 23.2903 169.808 23.3105 169.76C23.3307 169.712 23.3603 169.668 23.3976 169.632C23.4348 169.595 23.479 169.567 23.5275 169.548C23.576 169.528 23.6278 169.519 23.6799 169.52H25.0159V174.776C25.0159 174.848 25.0159 174.92 25.0159 174.992L23.4159 173.392C23.3775 173.356 23.347 173.313 23.3263 173.265C23.3056 173.216 23.2953 173.164 23.2959 173.112L23.2799 169.912Z" fill="#1D4ED8"/>
<path opacity="0.5" d="M21.6799 169.912V173.112C21.6799 173.643 21.8898 174.152 22.2639 174.528L24.7999 177.064C25.0246 177.287 25.2986 177.454 25.5999 177.552C26.1228 178.677 26.9563 179.63 28.0022 180.297C29.0482 180.965 30.2631 181.32 31.5039 181.32H32.4559C33.3168 181.325 34.1701 181.16 34.9665 180.833C35.7628 180.506 36.4864 180.024 37.0951 179.415C37.7038 178.806 38.1856 178.083 38.5126 177.287C38.8396 176.49 39.0052 175.637 38.9999 174.776V167.312H25.0159V167.92H23.6799C23.1509 167.92 22.6434 168.13 22.2685 168.503C21.8937 168.876 21.682 169.383 21.6799 169.912ZM23.2799 169.912C23.2799 169.86 23.2903 169.808 23.3105 169.76C23.3307 169.712 23.3603 169.668 23.3976 169.632C23.4348 169.595 23.479 169.567 23.5275 169.548C23.576 169.528 23.6278 169.519 23.6799 169.52H25.0159V174.776C25.0159 174.848 25.0159 174.92 25.0159 174.992L23.4159 173.392C23.3775 173.356 23.347 173.313 23.3263 173.265C23.3056 173.216 23.2953 173.164 23.2959 173.112L23.2799 169.912Z" fill="white"/>
<path d="M42.312 182.4H22.2C21.2804 182.318 20.4245 181.896 19.8 181.216H44.68C44.0649 181.891 43.2209 182.313 42.312 182.4Z" fill="#1D4ED8"/>
<path opacity="0.5" d="M42.312 182.4H22.2C21.2804 182.318 20.4245 181.896 19.8 181.216H44.68C44.0649 181.891 43.2209 182.313 42.312 182.4Z" fill="white"/>
<path d="M312.888 172.608C312.784 169.408 310.368 168.656 307.216 168.296V167.136C307.212 167.002 307.155 166.874 307.058 166.781C306.96 166.689 306.83 166.638 306.696 166.64H295.8C295.733 166.638 295.666 166.649 295.603 166.673C295.54 166.696 295.482 166.732 295.433 166.778C295.384 166.825 295.345 166.88 295.317 166.941C295.289 167.002 295.274 167.069 295.272 167.136V182.264H307.224V180.608C310.376 180.256 312.792 175.792 312.888 172.608ZM307.216 178.656V170.256C309.536 170.592 311.136 170.912 310.792 173.232C310.52 175.088 309.064 178.4 307.216 178.656Z" fill="#1D4ED8"/>
<g opacity="0.5">
<path d="M312.888 172.608C312.784 169.408 310.368 168.656 307.216 168.296V167.136C307.212 167.002 307.155 166.874 307.058 166.781C306.96 166.689 306.83 166.638 306.696 166.64H295.8C295.733 166.638 295.666 166.649 295.603 166.673C295.54 166.696 295.482 166.732 295.433 166.778C295.384 166.825 295.345 166.88 295.317 166.941C295.289 167.002 295.274 167.069 295.272 167.136V182.264H307.224V180.608C310.376 180.256 312.792 175.792 312.888 172.608ZM307.216 178.656V170.256C309.536 170.592 311.136 170.912 310.792 173.232C310.52 175.088 309.064 178.4 307.216 178.656Z" fill="white"/>
</g>
<path d="M167.712 162.984H158.28V182.144H167.712V162.984Z" fill="#1D4ED8"/>
<path opacity="0.5" d="M167.712 162.984H158.28V182.144H167.712V162.984Z" fill="white"/>
<path d="M171.976 182.488H154.104L158.464 178.656H167.616L171.976 182.488Z" fill="#1D4ED8"/>
<path opacity="0.5" d="M171.976 182.488H154.104L158.464 178.656H167.616L171.976 182.488Z" fill="white"/>
<path d="M211.264 176.288H166.592L174.664 182.512H219.328L211.264 176.288Z" fill="#1D4ED8"/>
<path opacity="0.4" d="M211.264 176.288H166.592L174.664 182.512H219.328L211.264 176.288Z" fill="white"/>
<path d="M167.624 182.512L166.592 176.288L174.664 182.512H167.624Z" fill="#1D4ED8"/>
<path opacity="0.5" d="M167.624 182.512L166.592 176.288L174.664 182.512H167.624Z" fill="black"/>
<path d="M203.424 117.632H122.12C121.267 117.632 120.576 118.323 120.576 119.176V169.032C120.576 169.885 121.267 170.576 122.12 170.576H203.424C204.277 170.576 204.968 169.885 204.968 169.032V119.176C204.968 118.323 204.277 117.632 203.424 117.632Z" fill="#1D4ED8"/>
<path opacity="0.5" d="M201.816 120.944H123.64V167.08H201.816V120.944Z" fill="black"/>
<path opacity="0.4" d="M199.328 130.432H159.88V157.592H199.328V130.432Z" fill="black"/>
<path d="M199.328 130.432H159.88V132.92H199.328V130.432Z" fill="#1D4ED8"/>
<path d="M167.112 145.456L173.56 149.024C173.806 149.142 174.026 149.308 174.208 149.512C174.318 149.671 174.374 149.862 174.368 150.056C174.368 150.191 174.342 150.325 174.289 150.45C174.237 150.575 174.16 150.689 174.064 150.784C173.975 150.879 173.867 150.955 173.747 151.007C173.627 151.06 173.498 151.087 173.368 151.088C173.081 151.055 172.807 150.954 172.568 150.792L164.248 146.168C164.115 146.101 164.003 145.999 163.924 145.873C163.846 145.746 163.805 145.6 163.805 145.452C163.805 145.303 163.846 145.157 163.924 145.031C164.003 144.904 164.115 144.802 164.248 144.736L172.568 140.112C172.809 139.957 173.083 139.861 173.368 139.832C173.499 139.83 173.63 139.855 173.751 139.906C173.872 139.957 173.981 140.032 174.072 140.128C174.169 140.221 174.246 140.332 174.298 140.456C174.351 140.58 174.377 140.713 174.376 140.848C174.383 141.042 174.327 141.232 174.216 141.392C174.034 141.595 173.814 141.761 173.568 141.88L167.112 145.456Z" fill="white"/>
<path d="M183.704 138.792L177.304 152.544C177.202 152.794 177.052 153.022 176.864 153.216C176.691 153.351 176.476 153.422 176.256 153.416C176.125 153.418 175.996 153.393 175.875 153.344C175.754 153.294 175.644 153.221 175.552 153.128C175.458 153.045 175.382 152.942 175.33 152.828C175.278 152.714 175.25 152.59 175.248 152.464C175.271 152.183 175.353 151.911 175.488 151.664L181.888 137.92C181.988 137.675 182.132 137.45 182.312 137.256C182.488 137.119 182.705 137.045 182.928 137.048C183.058 137.046 183.186 137.071 183.306 137.12C183.425 137.17 183.534 137.243 183.624 137.336C183.715 137.42 183.787 137.521 183.836 137.634C183.886 137.747 183.912 137.869 183.912 137.992C183.9 138.27 183.829 138.543 183.704 138.792Z" fill="white"/>
<path d="M191.728 145.456L185.28 141.88C185.037 141.757 184.817 141.591 184.632 141.392C184.521 141.232 184.465 141.041 184.472 140.848C184.471 140.713 184.497 140.58 184.549 140.456C184.602 140.332 184.679 140.221 184.776 140.128C184.868 140.033 184.979 139.957 185.102 139.906C185.224 139.855 185.355 139.83 185.488 139.832C185.773 139.862 186.047 139.958 186.288 140.112L194.608 144.736C194.741 144.802 194.853 144.904 194.931 145.031C195.01 145.157 195.051 145.303 195.051 145.452C195.051 145.6 195.01 145.746 194.931 145.873C194.853 145.999 194.741 146.101 194.608 146.168L186.288 150.792C186.048 150.952 185.774 151.053 185.488 151.088C185.353 151.089 185.219 151.062 185.095 151.009C184.971 150.955 184.859 150.875 184.768 150.776C184.673 150.681 184.599 150.569 184.548 150.445C184.497 150.322 184.471 150.189 184.472 150.056C184.466 149.862 184.522 149.671 184.632 149.512C184.817 149.312 185.037 149.147 185.28 149.024L191.728 145.456Z" fill="white"/>
<path d="M129.52 125.2H126.848V127.872H129.52V125.2Z" fill="white"/>
<path d="M129.52 132.12H126.848V134.792H129.52V132.12Z" fill="white"/>
<path d="M129.52 139.032H126.848V141.704H129.52V139.032Z" fill="white"/>
<path d="M129.52 145.944H126.848V148.616H129.52V145.944Z" fill="white"/>
<path d="M129.52 152.856H126.848V155.528H129.52V152.856Z" fill="white"/>
<path d="M129.52 159.768H126.848V162.44H129.52V159.768Z" fill="white"/>
<path d="M142.704 125.808H132.056V126.608H142.704V125.808Z" fill="white"/>
<path d="M138.328 132.736H134.536V133.536H138.328V132.736Z" fill="white"/>
<path d="M154.832 140.512H151.04V141.312H154.832V140.512Z" fill="white"/>
<path d="M138.328 146.68H134.536V147.48H138.328V146.68Z" fill="white"/>
<path d="M143.792 146.68H140V147.48H143.792V146.68Z" fill="white"/>
<path d="M149.688 140.512H140V141.312H149.688V140.512Z" fill="white"/>
<path d="M152.024 146.68H145.648V147.48H152.024V146.68Z" fill="white"/>
<path d="M149.416 161.504H145.624V162.304H149.416V161.504Z" fill="white"/>
<path d="M154.888 161.504H151.096V162.304H154.888V161.504Z" fill="white"/>
<path d="M158.856 161.504H156.736V162.304H158.856V161.504Z" fill="white"/>
<path d="M152.024 132.736H140.224V133.536H152.024V132.736Z" fill="white"/>
<path d="M143.792 153.904H140V154.704H143.792V153.904Z" fill="white"/>
<path d="M147.256 153.904H145.064V154.704H147.256V153.904Z" fill="white"/>
<path d="M155.12 153.904H148.928V154.704H155.12V153.904Z" fill="white"/>
<path d="M156.152 95.5999C155.952 105.28 145.896 113.4 133.68 113.72C129.928 113.846 126.194 113.156 122.736 111.696C121.504 114.736 118.912 117.344 111.48 118.512C119.232 112.52 114.992 107.448 113.224 102.992C112.309 101.046 111.852 98.9174 111.888 96.7679C112.088 87.0799 122.144 78.9759 134.36 78.6479C146.576 78.3199 156.344 85.9199 156.152 95.5999Z" fill="#1D4ED8"/>
<path d="M134.28 85.4639H123.632V86.2639H134.28V85.4639Z" fill="white"/>
<path d="M129.904 92.3999H126.112V93.1999H129.904V92.3999Z" fill="white"/>
<path d="M146.408 100.176H142.616V100.976H146.408V100.176Z" fill="white"/>
<path d="M129.904 106.344H126.112V107.144H129.904V106.344Z" fill="white"/>
<path d="M135.376 106.344H131.584V107.144H135.376V106.344Z" fill="white"/>
<path d="M141.272 100.176H131.584V100.976H141.272V100.176Z" fill="white"/>
<path d="M143.6 106.344H137.224V107.144H143.6V106.344Z" fill="white"/>
<path d="M143.608 92.3999H131.808V93.1999H143.608V92.3999Z" fill="white"/>
<path d="M202.336 279L196.504 277.256L197.864 262.96L203.696 264.704L202.336 279Z" fill="#7F3E3B"/>
<path opacity="0.2" d="M204.176 261.472L198.344 259.736L197.584 267.744L203.48 268.84L204.176 261.472Z" fill="black"/>
<path d="M236.856 190.704C236.856 190.704 196.752 194.088 197.736 211.504C198.536 225.76 200.656 221.904 196.504 264.304L206.592 264.864C206.592 264.864 216.856 230.192 215.472 216.416C226.776 216.416 252.656 217.408 256.416 207.208C258.282 202.028 259.19 196.553 259.096 191.048L236.856 190.704Z" fill="#1D4ED8"/>
<path d="M208.192 266.784L195.008 264.528L195.224 258.696L208.872 261.728L208.192 266.784Z" fill="#263238"/>
<path d="M195.904 274.856L202.64 276.192C202.762 276.221 202.869 276.294 202.94 276.398C203.011 276.501 203.041 276.628 203.024 276.752L202.464 283.152C202.454 283.303 202.414 283.45 202.346 283.585C202.278 283.72 202.185 283.841 202.07 283.939C201.955 284.037 201.822 284.112 201.678 284.158C201.534 284.204 201.383 284.221 201.232 284.208C198.896 283.696 197.792 283.32 194.832 282.728C193.008 282.368 188.84 281.496 186.304 281.208C183.768 280.92 184.072 277.96 185.168 277.808C190.096 277.16 192.896 276.36 194.808 275.128C195.124 274.898 195.517 274.8 195.904 274.856Z" fill="#263238"/>
<path d="M192.88 276C193.41 276.072 193.947 276.089 194.48 276.048C194.507 276.049 194.534 276.041 194.555 276.025C194.577 276.009 194.593 275.986 194.6 275.96C194.612 275.937 194.618 275.911 194.618 275.884C194.618 275.858 194.612 275.832 194.6 275.808C194.432 275.64 192.92 274.208 192.144 274.368C192.054 274.383 191.97 274.422 191.901 274.481C191.832 274.541 191.78 274.618 191.752 274.704C191.689 274.83 191.66 274.97 191.669 275.111C191.677 275.251 191.722 275.387 191.8 275.504C192.083 275.802 192.47 275.98 192.88 276ZM194.168 275.784C193.056 275.784 192.272 275.656 192.04 275.328C191.993 275.251 191.968 275.163 191.968 275.072C191.968 274.982 191.993 274.893 192.04 274.816C192.053 274.774 192.076 274.735 192.109 274.704C192.141 274.673 192.181 274.651 192.224 274.64C192.6 274.56 193.544 275.2 194.2 275.792L194.168 275.784Z" fill="#1D4ED8"/>
<path d="M194.488 276.056H194.552C194.575 276.048 194.596 276.034 194.612 276.016C194.629 275.997 194.641 275.976 194.648 275.952C194.648 275.88 195.088 274.176 194.576 273.496C194.514 273.405 194.43 273.331 194.333 273.279C194.235 273.228 194.126 273.201 194.016 273.2C193.896 273.183 193.774 273.207 193.669 273.268C193.565 273.329 193.484 273.423 193.44 273.536C193.192 274.168 193.88 275.568 194.416 276.024C194.425 276.035 194.436 276.043 194.448 276.049C194.461 276.054 194.474 276.057 194.488 276.056ZM194.072 273.488C194.184 273.511 194.283 273.574 194.352 273.664C194.582 274.296 194.608 274.985 194.424 275.632C193.936 275.086 193.678 274.372 193.704 273.64C193.704 273.56 193.792 273.472 194 273.48L194.072 273.488Z" fill="#1D4ED8"/>
<path d="M176.336 281.224L170.784 278.728L174.624 265.032L180.176 267.528L176.336 281.224Z" fill="#7F3E3B"/>
<path opacity="0.2" d="M181.112 264L175.56 261.504L173.584 268.568L179.136 271.064L181.112 264Z" fill="black"/>
<path d="M224.92 190.704C224.656 190.704 179.96 195.304 179.904 210.464C179.808 235.536 172.648 264.272 172.648 264.272L181.448 268.648C181.448 268.648 196.832 237.496 196.6 217.952C208.896 214.424 240.704 220.352 244.464 210.16C247.544 201.824 245.88 190.704 245.88 190.704H224.92Z" fill="#1D4ED8"/>
<path d="M182.888 269.92L171.048 264.592L172 259.744L184.488 264.056L182.888 269.92Z" fill="#263238"/>
<path d="M171.336 274.128L178.088 275.528C178.215 275.57 178.322 275.656 178.391 275.771C178.46 275.885 178.486 276.02 178.464 276.152L177.936 283.152C177.84 283.912 177.296 284.432 176.712 284.312C174.376 283.776 173.272 283.36 170.312 282.712C168.488 282.344 163.52 281.112 161.016 280.48C158.512 279.848 159.072 276.64 160.216 276.616C165.168 276.544 168.376 275.736 170.28 274.352C170.431 274.244 170.603 274.168 170.785 274.129C170.966 274.091 171.154 274.09 171.336 274.128Z" fill="#263238"/>
<path d="M168.6 275.64C169.07 275.382 169.512 275.076 169.92 274.728C169.941 274.709 169.956 274.685 169.964 274.659C169.973 274.632 169.974 274.604 169.968 274.576C169.96 274.55 169.944 274.527 169.923 274.51C169.902 274.493 169.875 274.482 169.848 274.48C169.616 274.48 167.552 274.176 167.016 274.776C166.957 274.844 166.916 274.926 166.896 275.014C166.877 275.102 166.88 275.194 166.904 275.28C166.928 275.419 166.988 275.549 167.077 275.657C167.167 275.765 167.284 275.848 167.416 275.896C167.829 275.962 168.251 275.871 168.6 275.64ZM169.504 274.704C168.632 275.384 167.904 275.712 167.528 275.6C167.444 275.562 167.371 275.504 167.316 275.429C167.262 275.355 167.227 275.268 167.216 275.176C167.203 275.135 167.201 275.091 167.211 275.049C167.221 275.006 167.242 274.968 167.272 274.936C167.512 274.648 168.6 274.624 169.464 274.704H169.504Z" fill="#1D4ED8"/>
<path d="M169.88 274.728L169.936 274.688C169.95 274.668 169.957 274.645 169.957 274.62C169.957 274.596 169.95 274.572 169.936 274.552C169.896 274.496 169.232 272.856 168.424 272.608C168.32 272.575 168.209 272.567 168.101 272.583C167.993 272.6 167.89 272.642 167.8 272.704C167.693 272.762 167.608 272.854 167.56 272.966C167.512 273.078 167.504 273.203 167.536 273.32C167.704 273.984 169.088 274.696 169.8 274.744L169.88 274.728ZM168.016 272.904C168.069 272.881 168.126 272.869 168.184 272.869C168.242 272.869 168.299 272.881 168.352 272.904C168.915 273.276 169.347 273.817 169.584 274.448C168.865 274.299 168.232 273.878 167.816 273.272C167.768 273.208 167.816 273.08 167.96 272.968L168.016 272.904Z" fill="#1D4ED8"/>
<path d="M240.104 142.336C241.28 144.864 242.248 147.296 243.216 149.824C244.184 152.352 245.04 154.88 245.832 157.472C246.624 160.064 247.312 162.72 247.864 165.472C248.466 168.332 248.767 171.246 248.76 174.168C248.751 175.884 248.495 177.59 248 179.232C247.687 180.238 247.237 181.196 246.664 182.08C246.326 182.578 245.943 183.044 245.52 183.472L245.176 183.808C244.984 183.968 244.776 184.144 244.576 184.28C244.238 184.51 243.879 184.708 243.504 184.872C242.947 185.111 242.369 185.296 241.776 185.424C241.309 185.521 240.836 185.591 240.36 185.632C239.548 185.68 238.733 185.68 237.92 185.632C236.477 185.561 235.04 185.401 233.616 185.152C228.306 184.186 223.105 182.696 218.088 180.704L219.248 176.296C224.328 176.904 229.512 177.552 234.4 177.776C235.616 177.776 236.8 177.832 237.904 177.776C238.396 177.747 238.885 177.685 239.368 177.592C239.768 177.52 240.112 177.376 239.992 177.384C239.912 177.409 239.836 177.447 239.768 177.496C239.687 177.543 239.612 177.6 239.544 177.664C239.571 177.621 239.595 177.575 239.616 177.528C239.719 177.299 239.799 177.061 239.856 176.816C240.032 175.937 240.104 175.04 240.072 174.144C239.951 171.853 239.61 169.579 239.056 167.352C238.512 164.952 237.808 162.616 237.04 160.24C236.272 157.864 235.44 155.488 234.528 153.12C233.616 150.752 232.656 148.376 231.712 146.144L240.104 142.336Z" fill="#7F3E3B"/>
<path d="M221.456 177.496L216.152 174.512L213.488 180.256C213.488 180.256 219.688 182.84 220.992 181.224L221.456 177.496Z" fill="#7F3E3B"/>
<path d="M211.856 175.6L209.432 179.44L213.488 180.216L216.152 174.472L211.856 175.6Z" fill="#7F3E3B"/>
<path d="M227.736 146.896C226.72 149.448 225.656 151.888 224.536 154.36C223.416 156.832 222.296 159.264 221.112 161.696C218.728 166.648 216.057 171.456 213.112 176.096C212.312 177.28 211.512 178.456 210.616 179.632C210.168 180.224 209.672 180.808 209.144 181.408C208.856 181.712 208.624 181.992 208.288 182.304L207.808 182.768L207.536 183.024C206.774 183.676 205.878 184.151 204.912 184.416C204.403 184.561 203.884 184.671 203.36 184.744C202.506 184.847 201.644 184.882 200.784 184.848C199.299 184.802 197.818 184.655 196.352 184.408C190.928 183.45 185.616 181.943 180.496 179.912L181.664 175.496C186.84 176.12 192.128 176.784 197.104 176.992C198.277 177.036 199.452 177.02 200.624 176.944C201.096 176.906 201.564 176.831 202.024 176.72C202.173 176.683 202.318 176.629 202.456 176.56C202.504 176.56 202.456 176.504 202.24 176.64C202.16 176.682 202.087 176.736 202.024 176.8L202.104 176.704L202.328 176.456C202.472 176.312 202.648 176.072 202.816 175.88C203.144 175.464 203.48 175.016 203.816 174.528C204.48 173.576 205.128 172.52 205.768 171.448C207.048 169.304 208.24 167.024 209.408 164.72C210.576 162.416 211.696 160.064 212.8 157.696C215 152.976 217.152 148.096 219.2 143.376L227.736 146.896Z" fill="#7F3E3B"/>
<path d="M183.936 176.648L178.624 173.6L175.96 179.344C175.96 179.344 182.16 181.936 183.472 180.32L183.936 176.648Z" fill="#7F3E3B"/>
<path d="M174.336 174.76L171.904 178.592L175.96 179.368L178.624 173.624L174.336 174.76Z" fill="#7F3E3B"/>
<path d="M241.472 118.512L238.08 122.44L232.904 127.792L233.296 128.76C233.695 129.75 233.928 130.799 233.984 131.864C234.104 134.008 233.896 135.824 230.512 137.28C230.512 137.28 226.96 141.92 235.408 140.632C243.856 139.344 245.128 134.96 245.128 134.96C241.4 132.296 241.176 123.44 241.472 118.512Z" fill="#7F3E3B"/>
<path d="M224.248 114.08C224.248 114.608 223.984 115.056 223.632 115.072C223.28 115.088 223 114.672 222.992 114.144C222.984 113.616 223.264 113.168 223.608 113.152C223.952 113.136 224.24 113.552 224.248 114.08Z" fill="#263238"/>
<path d="M226.016 112.112C225.965 112.112 225.914 112.098 225.869 112.073C225.825 112.048 225.787 112.012 225.76 111.968C225.553 111.629 225.27 111.341 224.935 111.128C224.599 110.914 224.219 110.78 223.824 110.736C223.742 110.732 223.665 110.697 223.608 110.637C223.551 110.577 223.52 110.498 223.52 110.416C223.52 110.375 223.528 110.334 223.545 110.296C223.561 110.258 223.585 110.224 223.615 110.195C223.645 110.167 223.68 110.145 223.719 110.131C223.758 110.116 223.799 110.11 223.84 110.112C224.338 110.157 224.82 110.317 225.245 110.581C225.67 110.845 226.027 111.205 226.288 111.632C226.331 111.703 226.345 111.787 226.327 111.868C226.309 111.948 226.261 112.018 226.192 112.064C226.138 112.095 226.078 112.111 226.016 112.112Z" fill="#263238"/>
<path d="M224.056 114.4C223.625 115.841 223.006 117.218 222.216 118.496C222.545 118.682 222.91 118.792 223.286 118.82C223.662 118.847 224.04 118.792 224.392 118.656L224.056 114.4Z" fill="#630F0F"/>
<path d="M241.952 111.416C241.64 117.944 241.784 121.816 238.544 125.272C237.502 126.42 236.167 127.262 234.682 127.706C233.197 128.149 231.619 128.179 230.118 127.791C228.617 127.403 227.251 126.612 226.167 125.504C225.083 124.396 224.323 123.013 223.968 121.504C222.496 115.72 223.264 106.016 229.568 103.104C230.925 102.432 232.435 102.131 233.945 102.23C235.456 102.329 236.913 102.826 238.17 103.669C239.427 104.513 240.439 105.674 241.103 107.034C241.767 108.395 242.06 109.906 241.952 111.416Z" fill="#7F3E3B"/>
<path d="M244.912 113.6C243.97 116.369 242.534 118.944 240.672 121.2L232.176 122.8C232.176 122.8 225.464 119.992 227.256 115.368C226.12 114.408 226.544 111.44 227.344 109.808C227.988 110.337 228.801 110.617 229.635 110.595C230.468 110.573 231.265 110.251 231.88 109.688C232.137 110.091 232.484 110.429 232.893 110.675C233.302 110.922 233.763 111.071 234.239 111.11C234.715 111.15 235.194 111.079 235.638 110.903C236.082 110.727 236.48 110.451 236.8 110.096C237.164 110.449 237.605 110.712 238.088 110.865C238.571 111.019 239.082 111.058 239.583 110.981C240.084 110.903 240.56 110.711 240.973 110.419C241.387 110.126 241.728 109.742 241.968 109.296C242.49 109.623 243.102 109.777 243.716 109.737C244.331 109.697 244.917 109.464 245.392 109.072L245.512 108.96C245.627 110.532 245.423 112.11 244.912 113.6Z" fill="#263238"/>
<path opacity="0.1" d="M244.912 113.6C243.97 116.369 242.534 118.944 240.672 121.2L232.176 122.8C232.176 122.8 225.464 119.992 227.256 115.368C226.12 114.408 226.544 111.44 227.344 109.808C227.988 110.337 228.801 110.617 229.635 110.595C230.468 110.573 231.265 110.251 231.88 109.688C232.137 110.091 232.484 110.429 232.893 110.675C233.302 110.922 233.763 111.071 234.239 111.11C234.715 111.15 235.194 111.079 235.638 110.903C236.082 110.727 236.48 110.451 236.8 110.096C237.164 110.449 237.605 110.712 238.088 110.865C238.571 111.019 239.082 111.058 239.583 110.981C240.084 110.903 240.56 110.711 240.973 110.419C241.387 110.126 241.728 109.742 241.968 109.296C242.49 109.623 243.102 109.777 243.716 109.737C244.331 109.697 244.917 109.464 245.392 109.072L245.512 108.96C245.627 110.532 245.423 112.11 244.912 113.6Z" fill="white"/>
<path d="M246.136 105.68C246.366 106.221 246.43 106.818 246.319 107.396C246.208 107.973 245.927 108.504 245.512 108.92L245.392 109.032C244.917 109.424 244.331 109.656 243.716 109.696C243.102 109.737 242.49 109.583 241.968 109.256C241.728 109.702 241.387 110.086 240.973 110.379C240.559 110.671 240.084 110.863 239.583 110.941C239.082 111.018 238.57 110.979 238.088 110.825C237.605 110.672 237.164 110.409 236.8 110.056C236.48 110.411 236.082 110.687 235.638 110.863C235.194 111.039 234.715 111.11 234.239 111.07C233.763 111.031 233.302 110.882 232.893 110.635C232.484 110.389 232.137 110.051 231.88 109.648C231.265 110.211 230.468 110.532 229.634 110.554C228.801 110.576 227.988 110.297 227.344 109.768C227.004 109.505 226.73 109.165 226.544 108.776C226.5 108.691 226.463 108.603 226.432 108.512C226.363 108.59 226.289 108.662 226.208 108.728C225.809 109.047 225.321 109.234 224.811 109.265C224.301 109.295 223.794 109.166 223.36 108.896C223.017 108.658 222.742 108.334 222.562 107.956C222.382 107.579 222.305 107.161 222.336 106.744C222.345 106.571 222.375 106.399 222.424 106.232C222.361 106.353 222.28 106.463 222.184 106.56C221.993 106.744 221.768 106.889 221.521 106.985C221.274 107.081 221.01 107.127 220.745 107.12C220.48 107.113 220.219 107.054 219.977 106.946C219.735 106.837 219.517 106.682 219.336 106.488C219.152 106.209 219.026 105.895 218.966 105.566C218.906 105.237 218.914 104.899 218.989 104.573C219.064 104.247 219.204 103.939 219.401 103.669C219.598 103.399 219.848 103.171 220.136 103C220.592 102.734 221.112 102.596 221.64 102.6C222.472 102.612 223.277 102.893 223.936 103.4C223.682 102.896 223.614 102.318 223.744 101.769C223.873 101.219 224.193 100.733 224.646 100.395C225.099 100.058 225.656 99.8914 226.22 99.9244C226.784 99.9575 227.318 100.188 227.728 100.576C227.639 100.168 227.674 99.7422 227.83 99.3543C227.985 98.9664 228.254 98.634 228.6 98.4002C229.704 97.7602 231.544 98.3122 232.44 99.3842C232.44 99.3842 233.672 96.4082 235.8 96.7442C236.264 96.8082 238.448 97.7762 238.392 98.5602C238.404 98.6102 238.404 98.6623 238.392 98.7122C238.422 98.6509 238.457 98.592 238.496 98.5362C238.731 98.2187 239.041 97.9643 239.399 97.7954C239.756 97.6265 240.149 97.5485 240.544 97.5682C241.399 97.6313 242.235 97.8538 243.008 98.2242C244.664 98.9042 246.424 99.6642 247.384 101.176C248.344 102.688 247.856 105.2 246.136 105.68Z" fill="#263238"/>
<path d="M231 116C230.764 117.611 230.025 119.107 228.888 120.272C227.44 121.656 226.208 120.272 226.192 118.168C226.192 116.264 226.904 113.248 228.592 112.688C230.28 112.128 231.32 113.896 231 116Z" fill="#7F3E3B"/>
<path d="M256.6 137.232C256 135.632 253.2 134.032 251.48 134.032H250.344C248.052 134.052 245.764 134.199 243.488 134.472C238.915 134.978 234.375 135.742 229.888 136.76C227.824 137.304 225.832 137.992 224.248 138.584C222.232 139.384 221.048 139.92 221.048 139.92C221.048 139.92 223.256 154.624 224.4 169.232C225.032 177.368 224.768 185.44 224.976 190.992H259.104C260.28 184.32 260.096 178.504 260.192 166.456C260.24 159.2 259.064 143.816 256.6 137.232Z" fill="#263238"/>
<path opacity="0.2" d="M223.656 161.072C223.912 164.136 224.176 167.352 224.456 170.568C228.456 164.728 230.664 148.752 230.664 148.752L223.656 161.072Z" fill="black"/>
<path d="M219.112 140.992C214.224 143.744 209.432 157.792 209.432 157.792L220.632 166.232C224.904 162.192 231.152 152.168 231.832 148.16C232.92 142.048 226.944 136.608 219.112 140.992Z" fill="#263238"/>
<path d="M209.448 284.352C209.448 285.04 209.244 285.713 208.862 286.285C208.479 286.858 207.936 287.304 207.3 287.567C206.664 287.831 205.964 287.899 205.289 287.765C204.614 287.631 203.994 287.299 203.507 286.813C203.021 286.326 202.689 285.706 202.555 285.031C202.421 284.356 202.49 283.656 202.753 283.02C203.016 282.384 203.462 281.841 204.035 281.459C204.607 281.076 205.28 280.872 205.968 280.872C206.891 280.872 207.776 281.239 208.429 281.891C209.081 282.544 209.448 283.429 209.448 284.352Z" fill="#263238"/>
<path d="M261.4 284.352C261.4 285.04 261.604 285.713 261.987 286.285C262.369 286.858 262.913 287.304 263.548 287.567C264.184 287.831 264.884 287.899 265.559 287.765C266.234 287.631 266.854 287.299 267.341 286.813C267.828 286.326 268.159 285.706 268.293 285.031C268.428 284.356 268.359 283.656 268.095 283.02C267.832 282.384 267.386 281.841 266.814 281.459C266.241 281.076 265.568 280.872 264.88 280.872C263.957 280.872 263.072 281.239 262.419 281.891C261.767 282.544 261.4 283.429 261.4 284.352Z" fill="#263238"/>
<path d="M232.016 283.2C232.016 283.888 232.22 284.561 232.603 285.134C232.985 285.706 233.528 286.152 234.164 286.415C234.8 286.679 235.5 286.748 236.175 286.613C236.85 286.479 237.47 286.148 237.957 285.661C238.444 285.174 238.775 284.554 238.909 283.879C239.044 283.204 238.975 282.504 238.711 281.868C238.448 281.233 238.002 280.689 237.43 280.307C236.857 279.924 236.184 279.72 235.496 279.72C234.573 279.72 233.688 280.087 233.035 280.739C232.383 281.392 232.016 282.277 232.016 283.2Z" fill="#263238"/>
<path d="M234.416 278.944V272.216H224.448C222.491 272.214 220.539 272.396 218.616 272.76L200.056 276.36C199.64 276.441 199.269 276.676 199.018 277.018C198.767 277.36 198.654 277.784 198.701 278.206C198.749 278.627 198.953 279.016 199.274 279.293C199.595 279.571 200.008 279.718 200.432 279.704L234.416 278.944Z" fill="#263238"/>
<path d="M234.416 278.944V272.216H244.392C246.342 272.228 248.287 272.423 250.2 272.8L271.064 276.128C271.48 276.209 271.851 276.444 272.102 276.786C272.353 277.128 272.466 277.552 272.419 277.974C272.371 278.395 272.167 278.784 271.846 279.061C271.525 279.339 271.112 279.486 270.688 279.472L234.416 278.944Z" fill="#263238"/>
<path d="M240.584 241.416H228.24V272.224H240.584V241.416Z" fill="#263238"/>
<path d="M238.816 227.08H230.016V241.408H238.816V227.08Z" fill="#263238"/>
<path opacity="0.5" d="M230.016 231.288L238.816 233.504V227.08H230.016V231.288Z" fill="black"/>
<path d="M205.968 194.664H201.496V213.744H205.968V194.664Z" fill="#263238"/>
<path d="M228.392 227.08V144.128C228.391 142.576 228.723 141.042 229.364 139.629C230.006 138.216 230.943 136.957 232.112 135.936L238.024 130.76C240.015 129.014 242.576 128.055 245.224 128.064H266.576L276.992 139.2V227.08H228.392Z" fill="#1D4ED8"/>
<path d="M196.6 211.032H245.32V227.08H188.656C187.64 227.079 186.643 226.809 185.764 226.298C184.886 225.786 184.159 225.053 183.655 224.17C183.152 223.287 182.891 222.288 182.898 221.272C182.905 220.256 183.18 219.26 183.696 218.384C185.021 216.141 186.908 214.283 189.171 212.994C191.435 211.704 193.995 211.028 196.6 211.032Z" fill="#1D4ED8"/>
<path opacity="0.7" d="M276.992 139.2V227.08H188.656C187.64 227.078 186.643 226.808 185.764 226.297C184.886 225.786 184.159 225.052 183.655 224.17C183.152 223.287 182.891 222.287 182.898 221.271C182.905 220.255 183.18 219.259 183.696 218.384C185.021 216.142 186.909 214.284 189.172 212.995C191.435 211.705 193.996 211.029 196.6 211.032H221.136C223.069 211.032 224.923 210.264 226.29 208.897C227.656 207.531 228.424 205.677 228.424 203.744V144.128C228.423 142.576 228.755 141.042 229.396 139.629C230.038 138.216 230.975 136.957 232.144 135.936L238.056 130.76C240.047 129.014 242.608 128.055 245.256 128.064H266.608L276.992 139.2Z" fill="white"/>
<path d="M235.496 227.08V144.128C235.497 142.576 235.83 141.043 236.471 139.63C237.113 138.217 238.048 136.958 239.216 135.936L245.128 130.76C247.119 129.014 249.68 128.055 252.328 128.064H268.976C270.463 128.063 271.935 128.367 273.3 128.957C274.665 129.547 275.894 130.412 276.912 131.496L281.168 136.016C283.065 138.039 284.12 140.707 284.12 143.48V218.768C284.121 219.861 283.907 220.943 283.489 221.952C283.071 222.961 282.458 223.879 281.685 224.651C280.912 225.423 279.995 226.035 278.985 226.452C277.975 226.869 276.893 227.082 275.8 227.08H235.496Z" fill="#1D4ED8"/>
<path opacity="0.5" d="M235.496 227.08V144.128C235.497 142.576 235.83 141.043 236.471 139.63C237.113 138.217 238.048 136.958 239.216 135.936L245.128 130.76C247.119 129.014 249.68 128.055 252.328 128.064H268.976C270.463 128.063 271.935 128.367 273.3 128.957C274.665 129.547 275.894 130.412 276.912 131.496L281.168 136.016C283.065 138.039 284.12 140.707 284.12 143.48V218.768C284.121 219.861 283.907 220.943 283.489 221.952C283.071 222.961 282.458 223.879 281.685 224.651C280.912 225.423 279.995 226.035 278.985 226.452C277.975 226.869 276.893 227.082 275.8 227.08H235.496Z" fill="white"/>
<path d="M218.92 200.488C209.079 197.048 198.362 197.048 188.52 200.488C187.533 200.857 186.444 200.853 185.459 200.478C184.474 200.102 183.66 199.381 183.168 198.448C182.256 196.52 183.48 194.024 185.96 193.152C197.454 189.136 209.97 189.136 221.464 193.152C223.944 194.016 225.168 196.52 224.256 198.448C223.765 199.377 222.953 200.096 221.972 200.471C220.99 200.846 219.906 200.853 218.92 200.488Z" fill="#1D4ED8"/>
<path opacity="0.7" d="M218.92 200.488C209.079 197.048 198.362 197.048 188.52 200.488C187.533 200.857 186.444 200.853 185.459 200.478C184.474 200.102 183.66 199.381 183.168 198.448C182.256 196.52 183.48 194.024 185.96 193.152C197.454 189.136 209.97 189.136 221.464 193.152C223.944 194.016 225.168 196.52 224.256 198.448C223.765 199.377 222.953 200.096 221.972 200.471C220.99 200.846 219.906 200.853 218.92 200.488Z" fill="white"/>
<path d="M94.5919 121.112C94.4239 121.584 94.5439 122.056 94.8559 122.16C95.1679 122.264 95.5519 121.976 95.7119 121.504C95.8719 121.032 95.7599 120.552 95.4559 120.448C95.1519 120.344 94.7599 120.632 94.5919 121.112Z" fill="#263238"/>
<path d="M94.504 121.6C94.5692 123.247 94.8571 124.878 95.36 126.448C94.9569 126.562 94.534 126.588 94.12 126.525C93.706 126.461 93.3104 126.31 92.96 126.08L94.504 121.6Z" fill="#A02724"/>
<path d="M93.8238 117.896C93.853 117.908 93.8842 117.914 93.9158 117.914C93.9474 117.914 93.9786 117.908 94.0078 117.896C94.3595 117.784 94.7323 117.755 95.0972 117.81C95.4621 117.866 95.8093 118.004 96.1118 118.216C96.1432 118.239 96.179 118.256 96.217 118.266C96.255 118.275 96.2945 118.277 96.3332 118.271C96.3718 118.265 96.409 118.251 96.4424 118.231C96.4758 118.21 96.5048 118.184 96.5278 118.152C96.572 118.098 96.5961 118.03 96.5961 117.96C96.5961 117.89 96.572 117.822 96.5278 117.768C96.152 117.489 95.715 117.303 95.253 117.227C94.7911 117.15 94.3176 117.185 93.8718 117.328C93.7988 117.355 93.739 117.409 93.7048 117.479C93.6705 117.549 93.6645 117.63 93.6878 117.704C93.7013 117.747 93.7251 117.787 93.7571 117.819C93.7892 117.851 93.8285 117.874 93.8718 117.888L93.8238 117.896Z" fill="#263238"/>
<path d="M77.0479 122.856C77.9439 127.408 78.8319 135.752 75.6479 138.792C75.6479 138.792 76.8959 143.408 85.3599 143.408C94.6639 143.408 89.8079 138.792 89.8079 138.792C84.7279 137.576 85.5439 133.808 86.4319 130.272L77.0479 122.856Z" fill="#B55B52"/>
<path d="M79.1199 114.6C77.4559 120.552 76.1759 123.952 78.0799 127.96C80.9359 134 90.9199 134.784 93.6399 127.872C95.7119 121.472 97.7599 114.776 92.8399 110.48C91.7641 109.528 90.4629 108.865 89.0596 108.556C87.6563 108.247 86.1974 108.302 84.821 108.714C83.4446 109.127 82.1963 109.884 81.1944 110.914C80.1925 111.944 79.4702 113.213 79.0959 114.6H79.1199Z" fill="#B55B52"/>
<path d="M72.672 116.584C72.24 114.392 72.128 111.992 73.224 110.04C74.32 108.088 76.968 106.896 78.896 108.032C79.5225 106.713 80.4492 105.558 81.6019 104.661C82.7546 103.763 84.1013 103.148 85.5343 102.865C86.9672 102.581 88.4467 102.637 89.8543 103.027C91.2619 103.418 92.5585 104.133 93.6404 105.114C94.7223 106.096 95.5595 107.317 96.0849 108.68C96.6104 110.043 96.8095 111.51 96.6664 112.963C96.5233 114.417 96.042 115.817 95.2609 117.052C94.4797 118.286 93.4205 119.32 92.168 120.072C92.608 118.432 93.056 116.8 93.496 115.16C93.103 117.444 91.8914 119.505 90.088 120.96L90.888 116.056C90.7623 117.214 90.3686 118.326 89.7381 119.305C89.1077 120.284 88.2579 121.103 87.256 121.696L88.192 118.264C87.7178 119.842 87.1131 121.378 86.384 122.856C85.584 123.776 85.072 129.792 82.32 129.984C72.864 131.864 73.68 121.704 72.672 116.584Z" fill="#263238"/>
<path d="M85.3998 119.432C85.2402 120.958 85.5829 122.495 86.3758 123.808C87.4398 125.52 88.9998 124.864 89.5758 123.112C90.0878 121.512 90.1438 118.752 88.6638 117.64C87.1838 116.528 85.6238 117.6 85.3998 119.432Z" fill="#B55B52"/>
<path d="M62.8479 177.096C61.8319 176.76 57.0719 174.312 56.3119 174.752C58.5119 169.152 59.8799 168.28 60.8799 164.712C61.1583 163.826 61.2067 162.884 61.0206 161.974C60.8345 161.065 60.4199 160.217 59.8159 159.512C58.4079 157.624 57.9199 156.672 55.5839 156.904C52.3839 162.28 48.3119 168.904 46.7279 174.976C46.1919 177.016 45.8079 178.568 47.0239 180.296C48.0959 181.816 50.0719 182.424 51.9279 182.592C56.3839 182.992 62.9999 182.176 62.9119 179.528C62.8639 177.856 62.8479 177.096 62.8479 177.096Z" fill="#B55B52"/>
<path d="M62.096 176.896L65.872 175.672L65.536 182.496C65.536 182.496 62.512 182.6 60.896 180.576L62.096 176.896Z" fill="#B55B52"/>
<path d="M70.5919 175.56L70.0559 181.192L65.5359 182.496L65.8719 175.672L70.5919 175.56Z" fill="#B55B52"/>
<path d="M113.888 181.744C113.888 181.744 108.6 177.6 101.704 164C100.68 162.096 99.7039 160.168 98.7599 158.232C97.8159 156.296 96.9199 154.36 96.0559 152.304L104.232 148.784C105.912 152.448 108.536 156.232 110.392 159.872C112.248 163.512 116.624 172.136 117.176 172.936C117.448 173.352 117.744 173.696 118.024 174.08L118.448 174.64L113.176 180.736L113.888 181.744Z" fill="#B55B52"/>
<path d="M120.808 155.2L119.208 153.248L118.456 150.328L123.392 145.744C124.147 146.704 124.818 147.726 125.4 148.8C125.527 149.047 125.588 149.323 125.576 149.6L125.376 154.744L120.808 155.2Z" fill="#B55B52"/>
<path d="M118.488 147.176L122.176 143.824L123.344 145.784L118.416 150.344L118.488 147.176Z" fill="#B55B52"/>
<path d="M120.88 153.792C121.008 153.24 121.12 154.32 121.488 153.888C122.576 152.576 124.16 152.44 125.104 153.888C126.048 155.336 125.24 169.584 123.736 174.056C122.736 177.024 122.2 179.392 119.64 181.2C118.605 181.998 117.346 182.452 116.04 182.496C115.39 182.504 114.75 182.326 114.198 181.983C113.645 181.64 113.202 181.146 112.92 180.56C112.12 178.696 114.984 171.976 115.992 169.808C119.152 162.984 119.368 160.24 120.88 153.792Z" fill="#B55B52"/>
<path d="M110.296 153.176L116.832 153.112C117.765 153.172 118.699 153.024 119.568 152.68C120.633 152.059 121.428 151.063 121.8 149.888C122.728 147.488 122.808 144.912 123.168 142.4C123.528 139.888 124.296 137.248 126.2 135.56C122.728 136.024 116.6 134.936 113.92 137.776C112.512 139.288 110.024 153.176 110.296 153.176Z" fill="#1D4ED8"/>
<path opacity="0.5" d="M110.296 153.176L116.832 153.112C117.765 153.172 118.699 153.024 119.568 152.68C120.633 152.059 121.428 151.063 121.8 149.888C122.728 147.488 122.808 144.912 123.168 142.4C123.528 139.888 124.296 137.248 126.2 135.56C122.728 136.024 116.6 134.936 113.92 137.776C112.512 139.288 110.024 153.176 110.296 153.176Z" fill="white"/>
<path d="M121.48 143.464C121.104 143.568 120.856 144.904 120.936 145.288L121.304 145.944L122.048 149.144L124.544 147.768L122.296 143.768C122.21 143.637 122.084 143.537 121.938 143.482C121.791 143.428 121.631 143.421 121.48 143.464Z" fill="#B55B52"/>
<path d="M65.104 139.936C59.264 141.272 50.624 159.472 50.624 159.472L62.344 167.472C65.7192 162.656 68.7661 157.618 71.464 152.392C74.928 145.144 71.072 138.568 65.104 139.936Z" fill="#1D4ED8"/>
<path d="M73.6318 140.376C72.9598 138.912 72.2318 137.24 73.7438 136.72C75.4158 136.144 84.5678 135.552 87.7198 136.632C88.1327 136.744 88.5194 136.936 88.8577 137.198C89.196 137.46 89.4792 137.786 89.691 138.158C89.9029 138.53 90.0392 138.94 90.0922 139.364C90.1452 139.789 90.1138 140.22 89.9998 140.632V140.688L73.6318 140.376Z" fill="#263238"/>
<path opacity="0.2" d="M68.712 150.448L60.384 166.128L62.344 167.472C62.344 167.472 66.12 162.216 68.744 157.672L68.712 150.448Z" fill="black"/>
<path d="M100.6 147.944C101.864 154.344 98.9119 169.544 98.9439 194.344H65.6479C65.4319 189.336 69.0799 177.464 64.5439 153.816C64.3999 153.016 64.3359 140.096 65.1039 139.96C68.3282 139.396 71.5812 139.012 74.8479 138.808C79.564 138.536 84.2919 138.536 89.0079 138.808C90.9359 139.008 93.9679 140.2 95.8879 140.888C98.8719 141.944 99.9919 144.8 100.6 147.944Z" fill="#1D4ED8"/>
<path opacity="0.2" d="M91.7998 154.304C92.6638 159.56 96.1118 166.504 99.5438 170.584C99.6798 167.6 99.9838 164.48 99.9758 162.088L91.7998 154.304Z" fill="black"/>
<path d="M89.3999 146.4C88.5999 152.296 100.2 167.344 100.2 167.344L111.872 159.344C111.872 159.344 108.632 151.048 103.184 145.608C96.9999 139.384 90.3359 140 89.3999 146.4Z" fill="#1D4ED8"/>
<path d="M127.576 276.904H133.8L135.216 262.48H128.992L127.576 276.904Z" fill="#B55B52"/>
<path opacity="0.2" d="M135.12 263.352L134.4 270.784H128.168L128.896 263.352H135.12Z" fill="black"/>
<path d="M103.024 276.904H109.248L112.376 262.48H106.152L103.024 276.904Z" fill="#B55B52"/>
<g opacity="0.2">
<path d="M106.016 263.248H112.24L110.624 270.68H104.4L106.016 263.248Z" fill="black"/>
</g>
<path d="M134.152 274.104H127.36C127.219 274.12 127.089 274.185 126.991 274.288C126.893 274.39 126.834 274.523 126.824 274.664L125.592 281.784C125.521 282.06 125.549 282.353 125.672 282.61C125.795 282.867 126.005 283.073 126.264 283.192C126.338 283.204 126.414 283.204 126.488 283.192C128.936 283.144 132.48 282.952 135.56 282.952C139.168 282.952 142.28 283.2 146.504 283.2C149.064 283.2 149.776 279.856 148.704 279.56C143.832 278.184 139.856 278.04 135.648 274.672C135.229 274.317 134.701 274.117 134.152 274.104Z" fill="#263238"/>
<path d="M139.096 276.416C139.896 276.416 140.696 276.304 140.928 275.944C140.994 275.849 141.029 275.736 141.029 275.62C141.029 275.504 140.994 275.391 140.928 275.296C140.821 275.128 140.656 275.005 140.464 274.952C139.424 274.672 137.264 275.912 137.16 275.968C137.133 275.982 137.111 276.004 137.098 276.032C137.085 276.059 137.081 276.09 137.088 276.12C137.092 276.149 137.105 276.176 137.125 276.198C137.145 276.219 137.171 276.234 137.2 276.24C137.825 276.359 138.46 276.418 139.096 276.416ZM140.088 275.208H140.368C140.428 275.221 140.485 275.245 140.534 275.281C140.584 275.317 140.625 275.363 140.656 275.416C140.76 275.6 140.728 275.688 140.656 275.736C140.368 276.144 138.792 276.152 137.632 275.984C138.395 275.573 139.228 275.307 140.088 275.2V275.208Z" fill="#1D4ED8"/>
<path d="M137.216 276.24H137.28C138.032 275.904 139.52 274.56 139.4 273.84C139.4 273.672 139.256 273.472 138.856 273.424C138.566 273.402 138.279 273.494 138.056 273.68C137.256 274.328 137.096 276.008 137.088 276.08C137.084 276.106 137.087 276.132 137.097 276.156C137.107 276.18 137.123 276.2 137.144 276.216C137.165 276.231 137.19 276.239 137.216 276.24ZM138.736 273.72H138.824C139.088 273.72 139.104 273.856 139.112 273.888C139.184 274.312 138.168 275.368 137.4 275.824C137.465 275.12 137.744 274.453 138.2 273.912C138.352 273.79 138.541 273.723 138.736 273.72Z" fill="#1D4ED8"/>
<path d="M109.688 274.104H102.696C102.556 274.121 102.427 274.186 102.33 274.288C102.234 274.39 102.176 274.523 102.168 274.664L100.936 281.784C100.869 282.066 100.904 282.363 101.034 282.622C101.164 282.881 101.382 283.085 101.648 283.2C101.714 283.208 101.781 283.208 101.848 283.2C104.288 283.152 105.48 282.96 108.552 282.96C110.448 282.96 112.872 283.208 115.488 283.208C118.104 283.208 118.44 279.864 117.368 279.568C112.568 278.208 112.24 276.368 110.704 274.544C110.576 274.401 110.42 274.288 110.244 274.212C110.069 274.136 109.879 274.099 109.688 274.104Z" fill="#263238"/>
<path d="M113.344 277.208C113.608 277.244 113.877 277.227 114.134 277.157C114.391 277.087 114.631 276.965 114.84 276.8C114.914 276.699 114.953 276.577 114.953 276.452C114.953 276.327 114.914 276.205 114.84 276.104C114.793 276.016 114.727 275.94 114.646 275.88C114.566 275.821 114.474 275.78 114.376 275.76C113.464 275.544 111.744 276.72 111.672 276.768C111.649 276.786 111.631 276.809 111.62 276.835C111.609 276.862 111.605 276.891 111.608 276.92C111.613 276.948 111.626 276.974 111.646 276.994C111.666 277.014 111.692 277.027 111.72 277.032C112.253 277.15 112.798 277.209 113.344 277.208ZM114.144 276.024H114.32C114.376 276.034 114.43 276.057 114.477 276.09C114.524 276.123 114.563 276.166 114.592 276.216C114.728 276.464 114.648 276.56 114.592 276.6C114.328 276.944 113.056 276.952 112.12 276.8C112.721 276.387 113.407 276.114 114.128 276L114.144 276.024Z" fill="#1D4ED8"/>
<path d="M111.8 277.04C112.448 276.688 113.696 275.328 113.56 274.64C113.539 274.53 113.481 274.43 113.395 274.359C113.308 274.287 113.2 274.248 113.088 274.248C112.976 274.237 112.864 274.249 112.757 274.282C112.65 274.315 112.55 274.368 112.464 274.44C111.744 275.032 111.592 276.84 111.584 276.904C111.583 276.931 111.589 276.958 111.601 276.982C111.614 277.006 111.633 277.026 111.656 277.04H111.8ZM113.056 274.52H113.12C113.312 274.52 113.328 274.632 113.336 274.672C113.416 275.08 112.616 276.112 111.976 276.6C112.026 275.892 112.281 275.213 112.712 274.648C112.808 274.566 112.93 274.521 113.056 274.52Z" fill="#1D4ED8"/>
<path d="M88.968 194.328C88.968 194.328 118.448 206.504 124.544 215.856C120.92 239.648 114.416 266.752 114.416 266.752H103.328C103.346 255.025 104.306 243.318 106.2 231.744C107.8 202.664 55.464 232.752 65.632 194.328H88.968Z" fill="#263238"/>
<path opacity="0.3" d="M109.352 214.4C107.287 214.522 105.23 214.759 103.192 215.112L96.7358 216.104C100.066 218.902 103.581 221.473 107.256 223.8C109.488 225.216 111.92 226.576 114.552 226.584C117.512 226.584 125.544 222.792 124.216 218.848C122.888 214.904 112.712 214.256 109.352 214.4Z" fill="black"/>
<path d="M98.952 194.328C98.952 194.328 126.2 197.848 141.224 206.4C145.848 209.032 145.224 217.488 145.08 223.056C144.758 237.998 141.89 252.775 136.6 266.752H127.336C127.336 266.752 127.808 251.656 127.496 227.296C127.4 219.992 112.656 217.584 98.248 216.736C92.1467 216.353 86.274 214.271 81.2926 210.728C76.3111 207.184 72.4193 202.318 70.056 196.68L69.072 194.328H98.952Z" fill="#263238"/>
<path d="M138.848 264.272C138.896 264.272 138.248 268.648 138.248 268.648H125.448L125.096 264.744L138.848 264.272Z" fill="#1D4ED8"/>
<path d="M115.488 264.272C115.536 264.272 114.312 268.648 114.312 268.648H101.512L101.744 264.744L115.488 264.272Z" fill="#1D4ED8"/>
<path d="M81.0959 216.408L71.9199 284.016L70.2639 283.784L77.3439 215.896L81.0959 216.408Z" fill="#1D4ED8"/>
<path opacity="0.4" d="M80.7679 218.832L71.9199 284.016L70.2639 283.784L77.0399 218.816L80.7679 218.832Z" fill="black"/>
<path d="M113.352 218.824H61.3518C61.3518 218.045 61.5053 217.273 61.8037 216.553C62.102 215.832 62.5392 215.178 63.0904 214.627C63.6416 214.076 64.296 213.638 65.0162 213.34C65.7364 213.042 66.5083 212.888 67.2878 212.888H107.416C108.195 212.888 108.967 213.042 109.687 213.34C110.408 213.638 111.062 214.076 111.613 214.627C112.164 215.178 112.602 215.832 112.9 216.553C113.198 217.273 113.352 218.045 113.352 218.824Z" fill="#1D4ED8"/>
<path opacity="0.7" d="M113.352 218.824H61.3518C61.3518 218.045 61.5053 217.273 61.8037 216.553C62.102 215.832 62.5392 215.178 63.0904 214.627C63.6416 214.076 64.296 213.638 65.0162 213.34C65.7364 213.042 66.5083 212.888 67.2878 212.888H107.416C108.195 212.888 108.967 213.042 109.687 213.34C110.408 213.638 111.062 214.076 111.613 214.627C112.164 215.178 112.602 215.832 112.9 216.553C113.198 217.273 113.352 218.045 113.352 218.824Z" fill="white"/>
<path d="M63.7599 218.816L55.9199 284.552H57.5999L67.5439 218.816H63.7599Z" fill="#1D4ED8"/>
<path d="M110.944 218.816L118.784 284.552H117.104L107.168 218.816H110.944Z" fill="#1D4ED8"/>
<path opacity="0.4" d="M110.944 218.816L118.784 284.552H117.104L107.168 218.816H110.944Z" fill="black"/>
<path d="M100.456 218.816L100.608 284.552H98.9359L96.6719 218.816H100.456Z" fill="#1D4ED8"/>
</g>
<defs>
<clipPath id="clip0_211_15030">
<rect width="327" height="302" fill="white"/>
</clipPath>
</defs>
</svg>
